<?xml version="1.0" encoding="UTF-8"?>
<svg id="Capa_1" data-name="Capa 1" xmlns="http://www.w3.org/2000/svg" viewBox="0 0 1287.53 1222.99">
  <defs>
    <style>
      .cls-1 {
        fill-rule: evenodd;
      }

      .cls-1, .cls-2 {
        fill: #39A900;
      }
    </style>
  </defs>
  <path class="cls-1" d="M183.38,458.6v.47c-.43,2.07-.61,3.59-.61,4.56,0,6.43,3.65,11.2,10.92,14.34,7.37,3.13,18.68,4.68,34,4.68,11.67,0,20.78-1.29,27.41-3.85,6.66-2.55,9.97-6.1,9.97-10.57,0-6.8-13.14-12.27-39.28-16.55-3.07-.5-5.37-.88-6.84-1.09-1.68-.33-4.15-.72-7.36-1.22-41.57-6.82-68.32-14.17-80.12-22.14-5.75-3.9-10.15-8.45-13.12-13.76-2.85-5.28-4.35-11.27-4.35-17.84,0-16.28,9.55-28.65,28.65-37.14,19.1-8.49,47.05-12.74,83.85-12.74s63.29,3.96,80.8,11.91c17.5,8,26.27,20.28,26.27,36.79v1.92h-68.85v-.74c0-5.73-3.46-9.98-10.42-12.9-6.97-2.94-17.18-4.44-30.63-4.44-10.43,0-18.52,1.03-24.11,3.13-5.69,2.09-8.52,5.07-8.52,8.92,0,6.9,15.03,12.71,45.04,17.57,5.76.87,10.33,1.58,13.59,2.09,21.39,3.57,36.61,6.66,45.67,9.24,9.09,2.55,16.88,5.59,23.48,9.09,7.31,4.01,13.05,9.09,16.99,15.2,3.98,6.12,5.97,12.79,5.97,20.11,0,16.77-10.41,29.64-31.21,38.67-20.81,9.03-50.8,13.54-89.84,13.54s-66.59-4.35-83.88-13.01c-17.3-8.7-25.86-22.6-25.86-41.77v-2.46h72.4ZM372.01,513.06v-164.86h196.26v35.55h-122.56v26.24h113.34v35.1s-113.34,0-113.34,0v31.99h127.23v35.98h-200.93ZM603.71,513.06v-164.86h93.27l99.84,110.61v-110.61h70.81v164.86h-96.75l-96.58-110.99v110.99h-70.59ZM1058.04,447.32l-35.27-59.92-37.29,59.92h72.57ZM945.76,513.06h-73.92l114.1-164.86h81.77l108.83,164.86h-82.07l-16.63-29.75h-114.33l-17.76,29.75Z"/>
  <g>
    <path class="cls-1" d="M286.89,1094.29l-65.85-61.91,200.44-347.86c10.92-18.97-2.75-42.68-24.65-42.68H68.71v-87h528.11l-309.94,539.44Z"/>
    <path class="cls-1" d="M1000.64,1094.29l65.85-61.91-200.44-347.86c-10.92-18.97,2.75-42.68,24.65-42.68h328.12v-87h-528.12l309.94,539.44Z"/>
  </g>
  <path class="cls-1" d="M639.75,646.81c.47-.83.72-1.24.72-1.24l297.59,491.89-79.03,41.12-191.76-321.15c-11.3-18.92-38.69-18.96-49.94,0-63.93,107.75-190.52,321.14-190.52,321.14l-77.35-38.26s274.38-466.49,290.29-493.51Z"/>
  <circle class="cls-2" cx="643.76" cy="179.94" r="122.74"/>
</svg>