<?xml version="1.0" encoding="UTF-8"?>
<svg id="Capa_2" data-name="Capa 2" xmlns="http://www.w3.org/2000/svg" viewBox="0 0 210.1 168.61">
  <defs>
    <style>
      .cls-1 {
        fill: #003186;
      }

      .cls-1, .cls-2, .cls-3, .cls-4 {
        stroke-width: 0px;
      }

      .cls-2 {
        fill: #d50224;
      }

      .cls-3 {
        fill: #ffc503;
      }

      .cls-4 {
        fill: #3c84b1;
      }
    </style>
  </defs>
  <g id="Layer_1" data-name="Layer 1">
    <g>
      <g id="DEFENSA_AZUL" data-name="DEFENSA AZUL">
        <g>
          <path class="cls-4" d="M147.33,28.98c-.06-.1-.17-.14-.28-.14h0c-.16.02-.31.07-.42.11-1.89.65-3.78,1.29-5.66,1.94-.1.04-.19.06-.26.09-.4.13-.42.15-.57.53-.03.08-.07.17-.12.28-.12.28-.23.57-.35.84l-.19.47s-.1.05-.14.07c-.13.07-.24.12-.35.2-.18.11-.35.23-.53.35-.09.06-.18.12-.27.18-.02.01-.05.02-.08.03v-.07c0-.11,0-.21,0-.31,0-.35-.01-.69-.02-1.03-.01-.72-.03-1.47-.06-2.2-.02-.63-.06-1.27-.1-1.88-.02-.31-.04-.62-.06-.94,0-.03,0-.05,0-.08-.01-.08-.02-.14.02-.2h0s.06,0,.1,0l.64.05c.33.02.66.05.99.07.1,0,.2.01.29.02h.13c.13.02.24-.04.32-.15.05-.07.1-.13.15-.19,1.29-1.56,2.59-3.12,3.89-4.69l.08-.11c.04-.07.03-.17-.02-.24-.04-.06-.1-.1-.17-.1h-.01c-.12,0-.24.03-.34.07-1.73.63-3.45,1.26-5.18,1.89l-.64.24c-.05.02-.1.03-.14.05-.36.12-.4.17-.46.73-.02.2-.05.41-.08.61-.01.11-.03.21-.04.31l-.16.1c-.1.06-.2.12-.29.18l-2.01,1.27c-2.32,1.47-4.64,2.94-6.95,4.41-.66.42-1.31.85-1.97,1.28-.36.24-.72.47-1.08.71-.02.01-.04.03-.06.05-.06.05-.1.08-.16.09,0-.14-.02-.28-.03-.42-.02-.29-.04-.58-.05-.87,0-.17-.02-.34-.03-.51-.02-.27-.04-.54-.04-.82,0,0,.01,0,.01,0,.05,0,.09,0,.12,0,.41.03.84.01,1.31-.05,1.25-.16,2.18-.76,2.78-1.77.16-.27.29-.53.4-.79.39-.92.61-1.96.69-3.27,0-.15-.02-.29-.08-.44-.27-.66-.66-1.23-1.15-1.7-.29-.28-.62-.55-1.06-.86.11.02.23.04.34.06.52.14.99.28,1.44.41.81.24,1.79.49,2.8.58,1.08.09,2.05-.12,2.91-.62.54-.31,1.04-.69,1.47-1.12.34-.34.67-.71,1-1.07.06-.06.09-.16.08-.25-.02-.12-.12-.21-.26-.22-.09,0-.18,0-.26,0h-.76c-.38,0-.77.01-1.16.01-.11,0-.21,0-.32-.01h-.03c-.03-.14-.03-.28-.03-.42v-.09c0-.06,0-.11,0-.17,0-.11-.02-.21.02-.31.03,0,.06.01.08.02.08.02.16.03.24.04.12,0,.27,0,.4-.04.09-.03.16-.09.23-.14.02-.01.04-.03.06-.04.03.02.06.05.1.07.04.03.08.06.13.09l.22.16c.23.16.47.33.71.48.14.1.32.18.51.23.14.04.28.03.38-.04.11-.07.18-.2.19-.36,0-.06,0-.12,0-.18,0,0,0,0,0,0,.06.03.11.05.15.08.14.09.27.18.41.27.19.13.38.25.57.37l.08.05c.14.09.28.18.44.24.21.09.36.05.44,0,.13-.07.22-.21.25-.4,0-.04,0-.08,0-.11,0-.03,0-.06,0-.09.06.05.11.1.17.15.07.06.14.12.21.19.18.16.36.32.55.47.15.11.34.21.53.29.31.12.6.06.83-.17.03-.03.06-.06.09-.09.01,0,.02-.02.03-.03.05.02.1.05.15.07.16.08.31.15.47.21.15.05.31.09.46.13.07.02.14.04.21.06.01.02.02.04.04.05.05.08.11.16.18.23.44.41.91.69,1.41.86.2.06.36.1.51.1h0c.15,0,.28-.05.36-.14.09-.1.12-.23.1-.39-.02-.14-.06-.27-.12-.38l-.08-.14c-.12-.22-.24-.45-.39-.65-.38-.49-.68-.86-.99-1.19-.87-.94-1.84-1.86-2.87-2.75-.54-.47-1.09-.93-1.64-1.39-.51-.43-1.01-.85-1.52-1.28-2.35-2.01-4.6-3.79-6.9-5.42-1.45-1.04-2.94-2.09-4.38-3.1-.94-.66-1.88-1.32-2.82-1.99-1.28-.91-2.75-1.67-4.36-2.24-1.36-.48-2.82-.83-4.48-1.08-1.15-.16-2.11-.22-3.02-.19-.48.01-.97.08-1.47.19-.75.17-1.38.46-1.91.89-.76.61-1.17,1.42-1.2,2.4-.02.74.1,1.48.38,2.27.05.13.09.26.14.39.07.19.14.39.21.58.1.32.18.66.25,1,.06.31.04.64-.06.99-.08.28-.21.44-.41.5-.61.18-1.02.12-1.37-.19-.62-.54-1.36-.78-2.19-.71-.2.02-.39.03-.59.05-.16-.13-.32-.27-.47-.4l-.28-.24c0-1.34-.05-1.52-.84-2.35,0,0,0-.02,0-.03,0-.04,0-.09,0-.14-.01-.2-.08-.35-.21-.43-.32-.21-.76-.44-1.29-.32-.13.03-.26.08-.37.13-.28.12-.52.11-.75-.04-.27-.18-.55-.16-.83.06-.02.01-.03.03-.05.04-.04.03-.07.06-.1.07.01-.05.03-.1.05-.16.01-.04.03-.08.04-.12.18-.58.25-1.11.22-1.63-.05-.88-.47-1.54-1.23-1.95-.31-.17-.67-.31-1.11-.43-.79-.2-1.64-.29-2.76-.31-.06,0-.12,0-.18,0-1.43,0-2.87.18-4.28.53-1.35.34-2.64.8-3.94,1.28-1.2.44-2.19,1.02-3.03,1.79-.49.44-1.06.87-1.77,1.3-.53.33-1.11.67-1.83,1.09-2.74,1.59-5.22,3.43-7.38,5.47-.33.31-.65.61-.97.92-.23.22-.46.44-.69.66l-.3.28c-.5.47-1.02.95-1.54,1.42-.9.79-1.87,1.53-2.8,2.25l-.53.4c-.64.49-1.13.88-1.56,1.25-.84.7-1.54,1.64-2.13,2.84-.05.1-.08.19-.1.29-.02.08,0,.16.03.23.05.07.11.11.19.13.1.02.18.03.27.02.47-.02.87-.16,1.17-.42.49-.42,1.06-.77,1.75-1.09.06-.03.12-.06.18-.1.04-.02.08-.05.12-.07.01,0,.03-.01.04-.02.02,0,.03-.02.03-.02v.03c.01.08.02.16.05.24.06.25.24.37.51.33.12-.02.22-.06.3-.11.11-.07.22-.14.32-.22l.51-.41c.2-.16.39-.32.59-.48,0,0,.01-.01.02-.02,0,.05-.02.1-.02.15-.03.21.03.39.15.5.12.11.3.15.5.11.22-.04.42-.12.57-.18.53-.22,1-.53,1.36-.77.05-.04.11-.07.17-.1,0,.04,0,.07,0,.1,0,.12.02.24.1.31.08.06.19.05.3.03.59-.11,1.05-.34,1.41-.7l.04-.05s.08-.08.12-.11c.01.01.02.02.03.03.25.29.43.35.77.23.12-.04.23-.09.32-.15.12-.08.24-.16.35-.25.07-.05.13-.09.2-.14.03-.02.05-.04.08-.06.05-.04.09-.08.15-.1.06.19.1.39.13.58l.03.17c.02.08.04.17.06.25.04.17.08.34.08.51-.02,0-.04,0-.06,0-.08,0-.14,0-.21,0h-1.46s-.05,0-.05,0c-.09,0-.16,0-.25,0-.11.01-.2.07-.25.16-.05.09-.06.2-.02.3.03.09.09.17.14.23.57.75,1.18,1.32,1.87,1.75.54.35,1.07.56,1.62.62.53.06,1,.05,1.44-.03.69-.13,1.36-.29,1.92-.42.16-.04.32-.07.47-.11.56-.14,1.14-.28,1.73-.35.17-.03.34-.03.5-.02-.03.05-.06.09-.09.12-.26.25-.54.5-.8.73-.12.11-.24.21-.36.32-.13.11-.26.23-.39.34-.6.55-.89,1.24-.89,2.06,0,1.01.22,1.96.64,2.81.4.81,1,1.4,1.81,1.81.49.24,1.03.43,1.63.57.25.06.5.11.76.16h.06c-.04.48-.08.94-.12,1.4l-.07.8-.06-.03c-.11-.06-.19-.1-.28-.15-2.53-1.4-5.07-2.96-7.55-4.62-.9-.6-1.8-1.22-2.66-1.82-.58-.4-1.16-.8-1.75-1.2-.17-.12-.27-.25-.32-.44-.04-.12-.08-.24-.12-.36-.05-.13-.09-.25-.13-.39-.07-.24-.22-.39-.46-.45-.03,0-.07-.02-.11-.03l-.99-.35c-1.38-.48-2.76-.97-4.14-1.45l-.08-.03c-.06-.02-.11-.04-.17-.05-.06-.01-.15-.03-.24-.01-.11.02-.2.09-.24.18-.04.09-.03.2.03.3.05.07.1.14.15.2l.03.04c.38.47.75.93,1.13,1.4.79.98,1.59,1.96,2.38,2.95.19.24.4.33.68.3.46-.04.94-.07,1.4-.09h.23s.08-.01.13,0c.01,0,.02,0,.03,0,0,.56-.04,1.09-.07,1.59-.03.54-.06,1.09-.08,1.62,0,.17-.01.34-.02.5-.01.38-.03.77-.05,1.15-.01.22-.02.44-.03.66-.01.29-.02.59-.05.9-.05-.02-.09-.04-.13-.07-.13-.08-.25-.16-.38-.24-.18-.12-.36-.23-.54-.34-.16-.1-.24-.21-.28-.4-.06-.28-.13-.55-.2-.82l-.07-.27c-.05-.18-.15-.29-.32-.35-.28-.09-.55-.2-.82-.3l-.78-.3c-1.65-.64-3.3-1.28-4.95-1.91l-.05-.02c-.1-.04-.21-.08-.31-.1-.08-.02-.18.02-.24.1-.06.08-.08.19-.03.28.05.1.12.19.2.29.42.5.83,1,1.25,1.5.98,1.18,2,2.39,2.99,3.59.19.23.39.32.68.32.01,0,.02,0,.03,0,.47,0,.95,0,1.41,0h.31c.08,0,.16.02.24.02h.05v.03c0,.06,0,.1,0,.15-.04.49-.08.97-.12,1.46-.06.72-.12,1.43-.18,2.14-.13,1.77-.2,3.59-.21,5.4,0,1.9.06,3.89.21,5.9.13,1.62.31,3.22.55,4.75.43,2.76,1.1,5.57,1.99,8.32.69,2.14,1.46,3.98,2.35,5.61,1.53,2.81,3.58,5.16,6.07,6.99,2.63,1.92,5.53,3.01,8.62,3.24,1.55.11,3.11-.03,4.64-.42,1.45-.36,2.87-.94,4.35-1.76.43-.24,1.83-1.18,2.04-1.3.06-.03.11-.06.17-.09,0,0,0,0,0,.01-.02.09-.03.16-.05.22-.06.18-.63,1.85-.82,2.39-.61,1.73-1.48,3.47-2.73,5.48-.04.06-.08.12-.12.18l-.07.1c-.03.06-.05.11-.07.17-.02.07,0,.15.04.22.04.06.11.1.18.11.04,0,.07,0,.1,0,.02,0,.05,0,.07,0,.64-.02,1.37-.04,2.07.06.04,0,.09.01.13.02.16.02.3.04.44.1.01.17-.01.33-.03.5,0,.05-.01.1-.02.15-.03.24-.06.48-.09.72-.04.31-.08.62-.11.93-.06.5.14.86.6,1.05.18.08.39.14.62.18.39.06.78.07,1.15.04.04,0,.08,0,.13,0,.07,0,.14,0,.21,0,0,.1-.01.2-.01.29,0,.1,0,.2-.01.3-.01.27-.03.55,0,.83.03.58.35.97.91,1.14l.06.02c.09.02.18.05.27.06.72.14,1.43.18,2.09.2.09,0,.19,0,.28,0,.68,0,1.25-.07,1.78-.21.23-.06.46-.15.68-.26.32-.16.54-.43.62-.79.04-.15.06-.32.08-.51.02-.39-.06-.77-.14-1.09-.01-.05-.02-.1-.02-.16,0-.01,0-.03,0-.04.01,0,.02,0,.03-.01.05-.02.1-.03.13-.03.23,0,.47,0,.7.04.14.02.28.05.42.08.14.03.29.06.44.08.51.07.83-.15.96-.64.05-.16.07-.33.08-.51.03-.55-.07-1.13-.31-1.87-.04-.12-.08-.23-.11-.35.14-.05.27-.06.41-.07h.04c.77-.04,1.54-.07,2.3-.11.1,0,.22-.01.35-.04.12-.03.21-.1.23-.2.02-.09-.02-.18-.1-.25-.1-.08-.16-.18-.23-.3-.09-.16-.18-.31-.27-.47-.23-.39-.46-.79-.68-1.19-1.12-2.04-1.99-4.19-2.57-6.41-.01-.05-.02-.1-.04-.16.01,0,.02.01.03.02.07.03.13.06.18.09,1.03.57,2,1.06,2.96,1.48,2.22.98,4.26,1.56,6.25,1.75,1.28.13,2.53.1,3.69-.07,1.66-.25,3.29-.81,4.86-1.69,1.95-1.09,3.72-2.58,5.26-4.43,1.38-1.66,2.54-3.55,3.56-5.78,1.23-2.68,2.16-5.65,2.85-9.07.37-1.85.66-3.8.86-5.8.17-1.67.27-3.33.32-4.94.08-2.81,0-5.8-.23-9.68-.04-.71-.09-1.45-.12-2.2,0-.05,0-.11.01-.17,0,0,0-.01,0-.02h.28l.64.02c.4.02.8.03,1.21.05.19.01.4-.02.53-.26.04-.08.11-.15.18-.23.02-.03.05-.05.08-.08,1.35-1.53,2.7-3.07,4.05-4.61l.03-.03c.08-.09.16-.19.23-.3.06-.09.06-.21,0-.3M137.93,26.05c.05-.47.1-.92.17-1.39.38-.16.78-.3,1.16-.44.2-.07.39-.14.58-.21l.56-.2c.42-.15.83-.31,1.25-.46.18-.07.36-.13.54-.2.35-.13.72-.27,1.1-.39-.76.92-1.52,1.85-2.28,2.77l-1.04,1.27c-.71-.04-1.4-.09-2.12-.13.02-.21.05-.41.07-.61M130.74,38.31c.23-2.36.35-4.95.4-7.93.62-.45,5.36-3.44,6.1-3.84,0,.01.01.02.01.03.22,2.56.33,5.16.32,7.73,0,0,0,.02-.01.03-2.47,1.66-4.69,3.09-6.81,4.36h-.03s0-.02,0-.02c0-.12.01-.25.02-.37M124.7,42.1s0-.03,0-.04c0-.18.02-.35.03-.53.01-.29.03-.59.03-.88.05-2.12.05-4.04-.01-5.9,0-.08,0-.15,0-.22h0c.5-.39,1.17-.81,1.5-.97,0,.01,0,.02,0,.03-.01,1.99-.45,6.74-.74,8.15-.25.14-.53.29-.79.43-.02-.02-.02-.04-.02-.09M124.63,43.29c0-.13.02-.25.04-.38v-.07s.28-.15.28-.15c.73-.4,1.45-.8,2.17-1.2,0,.02.01.05.02.08.11,1.82.09,3.59-.06,5.25-.25,2.86-.88,5.78-1.94,8.93-1.02,3.04-2.17,5.73-3.53,8.23-1.23,2.27-2.79,4.49-4.75,6.79-.03.04-.07.08-.11.11,0,0-.02.02-.03.03-.43-.34-1.38-1.47-1.66-1.99v-.02c.06-.06.12-.13.17-.19.84-.96,1.63-1.95,2.37-2.99.97-1.37,1.81-2.86,2.55-4.36.39-.78.74-1.58,1.07-2.39.34-.83.55-1.77.95-2.57.84-2.51,1.47-5.12,1.88-7.75.29-1.89.48-3.65.59-5.37M109.99,70.83c-.08-.04-.16-.08-.24-.12-.06-.03-.12-.06-.17-.09-.17-.09-.18-.12-.11-.3.03-.08.06-.15.1-.23l.07-.15c.15-.35.27-.79-.11-1.16,0-.01,0-.03,0-.03l.03-.06c.07-.15.15-.33.08-.55-.09-.27-.18-.5-.4-.67-.37-.29-.91-.29-1.31,0-.08.06-.16.12-.24.19-.03.02-.06.05-.09.07-.05-.03-.09-.06-.12-.1-.17-.21-.5-.3-.76-.34-.24-.03-.49-.03-.74-.02l-.84.02c-.11,0-.22,0-.33.02-.2.02-.4.09-.6.14-.22.05-.43.03-.65-.05-.05-.02-.09-.03-.13-.04-.2-.03-.28.05-.36.18l-.03.05c-.07.12-.14.25-.22.35-.12.15-.25.19-.42.13-.05-.02-.09-.03-.13-.04-.02,0-.05-.01-.07-.02-.42-.15-.81-.07-1.17.24-.1.08-.18.17-.27.26-.1.1-.24.27-.23.5,0,.03,0,.06-.01.1,0,.03-.01.06-.02.09-.03.25-.17.4-.44.47-.04.01-.07.02-.1.02-.54,0-.93.32-1.27.59-.36.29-.62.66-.77,1.13l-.03.1c-.02.05-.04.11-.06.17-.04-.03-.08-.06-.11-.09-2.18-1.97-3.94-3.91-5.4-5.92-1.14-1.57-2.13-3.27-3.02-5.19-.01-.02-.03-.05-.04-.08-.04-.06-.06-.11-.06-.15.51-.04,2.81-.04,3.3,0,.01.05.02.1.03.16.09.74.45,1.32,1.07,1.73.05.03.09.06.13.09.12.08.24.16.36.23.15.08.23.19.28.36.02.09.06.18.1.27.02.04.03.08.05.13.27.71.76,1.3,1.44,1.75.49.32,1.03.57,1.62.72.47.13.94.23,1.39.32.99.19,1.95.53,2.93.75.97.21,1.96.33,2.96.35.96.02,1.96,0,2.89-.27.13-.04.26-.06.39-.09.11-.03.21-.09.32-.12.54-.17,1.09.09,1.25.58.02.06.05.13.07.19l.04.09c.12.29.31.47.57.56.23.08.4.22.51.43.04.07.08.14.16.22.18.2.43.24.64.09.32-.22.47-.52.46-.88,0-.17-.08-.33-.23-.46-.08-.07-.16-.14-.26-.22l-.03-.03s.03-.03.04-.04c.03-.03.06-.06.09-.09.07-.07.15-.14.23-.21.16-.15.32-.3.46-.47.34-.4.76-.57,1.29-.52.08,0,.17.02.25.03.05,0,.11.02.16.02.22.03.33-.07.38-.15.08-.14.05-.28-.07-.4,0-.01-.02-.02-.03-.04.15-.11.32-.13.51-.06.14.06.3.13.47.24.38.24.77.46,1.23.5-.64,1.21-4.68,5.46-6.18,6.49.01-.06.03-.12.05-.18.03-.11.06-.23.08-.35.1-.57-.06-.91-.57-1.2M94.88,31.22c.01.37.07.44.42.47.17.02.34.04.51.05.23.02.46.05.69.08.03,0,.06.02.09.04,0,0,0,0-.01,0-.21.02-.42.05-.62.06-1.69.08-3.39-.2-5.08-.85-.49-.19-1.02-.39-1.56-.67.69-.26,2.53-.71,3.33-.8,1.35-.15,2.1-.17,2.54-.08,0,.04-.02.08-.05.13-.01.02-.02.05-.03.07-.17.45-.24.94-.23,1.5M91.85,31.96c1.37.4,2.8.56,4.25.49,1.72-.09,3.44-.49,5.25-1.23.38-.15.73-.31,1.11-.48.15-.07.31-.14.47-.2.83.79,1.05.97,1.48,1.13l.04.02.03-.02c.16-.08.12-.24.1-.31-.09-.35-.18-.7-.28-1.05-.02-.08-.05-.16-.09-.24l-.02-.06c.09-.07.17-.11.28-.14.02.07.03.14.03.21,0,.08.02.16.04.24.03.09.05.17.07.26.02.09.04.17.07.26.05.16.12.35.2.52.02.04.03.09.05.13.05.12.1.27.24.36l.06.04.05-.06c.23-.25.27-.4.59-1.87h0s.08.03.14.06c.03.02.06.04.08.05,1.22.63,2.34,1.11,3.43,1.47,1.55.53,3.1.79,4.61.79h.02c1.38,0,2.77-.25,4.25-.78.94-.34,1.76-.7,2.5-1.09.16-.09.3-.1.48-.03.61.22,1.34.47,2.09.64.11.03.22.05.32.07.06.01.12.02.17.04.17.91.34,5.84.28,8.21-.07,3.01-.24,5.67-.41,6.39-.03,0-.06.01-.08.01-12.77-.06-25.53-.13-38.3-.21,0,0-.03,0-.04-.01,0,0-.01,0-.02,0-.07-.38-.1-.77-.13-1.15l-.02-.27c-.38-4.4-.37-8.73.03-12.88h.04c.09-.03.17-.05.26-.07.28-.06.55-.11.83-.16.59-.12,1.2-.23,1.79-.36.21-.05.36-.03.54.06,1,.51,2.05.93,3.11,1.24M97.03,31.01c.17.12.19.21.08.55-.02-.01-.03-.04-.05-.08,0-.01-.01-.03-.02-.04,0-.02-.02-.04-.02-.06-.06-.13-.05-.25.02-.38M97.67,31.71c.03-.09.07-.16.13-.24.02-.03.04-.05.06-.08.02-.03.05-.07.08-.11s.05-.07.07-.11c.02.04.04.08.07.11.06.11.13.21.19.31-.05.02-.09.03-.14.05-.05.01-.1.02-.14.03-.1.02-.2.03-.3.03M98.47,30.7s.07,0,.1.02c.03.01.05.03.06.06.07.13.08.27.03.4-.05-.06-.09-.12-.12-.18-.02-.04-.03-.08-.05-.12-.01-.04-.02-.08-.02-.12,0-.02,0-.04,0-.06M99.55,30.29s0,.02,0,.03c0,.02,0,.05,0,.07,0,.05,0,.11,0,.16,0,.08,0,.17,0,.26,0,.06.02.12.05.16.02.05.06.09.1.12.03.03.08.04.12.05.02,0,.05,0,.07.01.02,0,.05,0,.07,0-.13.04-.26.08-.38.12-.12.03-.24.06-.34.08,0-.04,0-.08.01-.12,0-.05,0-.09.01-.13,0-.09.02-.17.03-.25.02-.12.06-.24.11-.35.03-.07.08-.14.13-.21M100.11,30.24s0-.04.01-.07c0,0,.01,0,.02,0,.04,0,.06,0,.09,0,.01,0,.03.01.05.02,0,0,0,0,0,0,0,.02,0,.04,0,.06,0,.04,0,.07-.02.1-.01.03-.02.06-.04.08-.03.03-.07.06-.12.09,0-.02-.01-.04-.02-.07,0-.07,0-.14.02-.23M100.48,30.96c.09-.06.16-.13.21-.21.06-.08.1-.18.12-.29,0-.02.01-.04.02-.05,0-.02.01-.03.02-.05.01,0,.02,0,.03,0,.03,0,.05,0,.05,0,.02.01.03.04.04.06.01.04.02.09.03.13.01.04.02.09.03.13v.02s0,.02,0,.02c-.05.03-.1.06-.17.09-.07.03-.14.06-.22.1-.05.02-.11.05-.17.07M97.6,23.26c0,.13-.02.26-.08.39-.15.32-.3.63-.46.96l-.13.28s-.05,0-.08-.01c-.08-.01-.17-.03-.25-.05-1.19-.28-2.46-.34-3.9-.17-1.2.14-2.4.41-3.55.67-.23.05-.46.1-.68.15-.23.05-.46.1-.69.15-.64.14-1.31.29-1.96.42-.4.08-.81.13-1.21.17l-.19.02c-.16.02-.33.04-.48.02,0-.02.02-.03.03-.06l.02-.02c.32-.42.6-.88.83-1.37.19-.4.3-.81.33-1.23.11-1.53-.45-2.81-1.64-3.81-.6-.49-1.32-.76-2.21-.83-.81-.06-1.63.07-2.31.21-.46.1-.85.14-1.22.14h-.09c-.4-.01-.8-.13-1.24-.36-.01,0-.03-.03-.05-.05.07-.09.15-.16.24-.2.74-.38,1.44-.82,2.17-1.37.04.05.07.1.11.15.2.23.44.3.7.19.15-.06.31-.14.46-.23.38-.23.75-.46,1.13-.69l.37-.23c.06-.03.12-.06.17-.09l.06-.03c.1.14.23.32.47.32.26,0,.48-.07.68-.22.33-.25.67-.49,1.08-.77.05-.03.12-.05.19-.07h.05c.05-.03.11-.03.17-.03h.07c.79-.1,1.48-.4,2.05-.91.02-.02.04-.04.08-.06.25.23.3.25.62.32,0,.08,0,.15,0,.23v.18c.01.42.16.74.45.98.24.19.53.28.85.24.12-.01.23-.08.34-.13l.04-.02s.03-.02.04-.02c.03.02.06.04.09.06.04.03.08.05.12.08.02.01.04.02.06.03l.03.02c.4.21.8-.03,1.07-.33.28-.3.44-.73.93-.61.47.12.97.13,1.54.04,0,0,.22-.04.23-.04h.02s.09-.02.14-.03h.04s.06.12.06.12c0,.01,0,.02.01.03.12.31.33.48.5.76.25.43.34.95.98.81.08-.01.15-.03.23-.06.03,0,.06-.02.1-.03,0,0,.33.58.38.64.18.22.4.34.68.42.04.01.09.02.13.04l.04.09c.15.38.45,1.2,1,.83.11-.07.21-.17.29-.28.02-.03.04-.06.06-.09-.12.16-.15.48-.19.67-.05.24-.09.49-.11.74-.05.54-.12,1.15.11,1.66.08.17.27.41.24.6-.02.1-.08.19-.09.29-.02.12-.02.24-.01.36M97.6,17.67c-.07.34-.23.7-.48,1.05,0,.01-.03.02-.05.04-.07-.09-.11-.2-.15-.31-.02-.06-.04-.11-.06-.17-.07-.16-.08-.33-.03-.54.06-.24.06-.49.02-.69-.09-.41-.01-.8.13-1.26.11-.36.31-.72.6-1.09,0,0,0,0,0,0,.01.03.02.06.03.09.18,1.02.18,1.96,0,2.89M96.97,14.18s-.03.04-.04.06c-.03.05-.06.09-.1.12-.45-1.35-.11-2.86.88-3.82,0,.01,0,.03,0,.04v.13c.02.16.03.32.04.48.02,1.26-.23,2.21-.78,2.98M97.54,9.92h0c-.16.2-.35.38-.59.53-.08.05-.16.1-.25.14-.01-.17-.02-.33-.01-.49,0-.24.03-.46.07-.68.02-.12.06-.25.1-.39.04-.14.1-.29.17-.45.03-.06.06-.11.09-.16.25-.3.57-.53.94-.66.06-.02.1-.03.14-.03.02,0,.05,0,.06.01.05.02.09.09.13.19.04.12.04.22,0,.35-.17.57-.46,1.12-.85,1.61M103.08,12.42s.03.07.05.12c-.69-.3-1.15-.64-1.49-1.07-.36-.47-.63-1.01-.83-1.69.08.06.15.13.22.2.11.1.23.21.36.31.72.57,1.29,1.28,1.69,2.13M101.73,8.93c.05,0,.1-.02.15-.02.09-.01.18-.03.27-.04.33.19.46.31.64.56-.27.11-.55.14-.87.12-.04-.13-.08-.25-.11-.38-.02-.08-.04-.15-.07-.23M105.36,26.94c-.49.75-.78,1.5-.88,2.28-.06.03-.12.06-.18.09-.1-.06-.19-.14-.29-.23-.01-.01-.02-.02-.03-.03,0,0,0,0,.01-.01.03-.04.05-.07.09-.1.31-.29.53-.63.66-1.05v-.02c.05-.12.08-.21.18-.27.1-.05.15-.18.19-.29.12-.34.23-.69.34-1.03,0,.1,0,.2.01.3.01.14-.02.25-.09.37M105.48,27.48c.19,1.27.1,2.5-.26,3.65,0,0,0,.01,0,.02-.59-1.16-.49-2.49.27-3.67M101.7,27.62l.13.14c.13.14.27.29.42.46-.03.52.03.99.18,1.41.05.14.11.27.18.4h0s0,.02,0,.02c-.02.01-.05.02-.08.03l-.07.03s-.02-.03-.02-.05c0-.02-.01-.03-.02-.05-.1-.47-.21-.9-.33-1.29s-.24-.76-.38-1.11M98.19,17.93c-.13.11-.21.25-.28.39,0-.04.01-.08.02-.13.06-.58.11-1.16.16-1.74,0-.1.01-.2.01-.32.07.14.1.27.06.42-.08.42-.07.87.03,1.37M98.19,13.34c.73.61,1.26,2.02.94,3.65-.93-.92-1.33-2.44-.94-3.65M98.12,10.4h0c0-.12.05-.25.1-.38v-.04c.04-.08.1-.16.15-.23.09-.12.18-.24.29-.38,0,0,0,0,0,0,.03.13.07.26.11.39.13.47.26.96.33,1.45.1.69.06,1.26-.14,1.83-.03-.03-.06-.05-.07-.07-.3-.45-.52-.89-.66-1.35-.12-.38-.12-.77-.1-1.24M99.03,9.24c.55.38.97.78,1.28,1.25.4.6.56,1.43.41,2.14-.68-.58-1.57-2.34-1.69-3.39M100.93,17.99c.17-.06.28-.18.41-.31.06.04.1.11.13.17.04.06.07.13.11.2,0,.02.02.04.01.06-.01.03-.05.03-.08.02-.1-.03-.14-.11-.2-.18-.42.41-.62.43-.92.06.18.04.36.04.53-.02M102.68,13.46v.02h0c0,.26-.03.52-.07.76-.51-.39-.87-.76-1.09-1.14-.24-.41-.34-.82-.28-1.14.02-.08.04-.13.07-.14,0,0,.01,0,.02,0,.04,0,.1.02.22.11l.03.03s0,0,0,0h.01s0,.01,0,.01c.25.26.55.48.9.67.05.08.1.18.13.31.03.12.05.26.06.43h0s0,.02,0,.03c0,.02,0,.04,0,.06M103.62,21.02c.04-.1.06-.22.11-.32,0,0,0-.02.02-.02.01,0,.02,0,.04,0,.01,0,.02,0,.03,0,.01,0,.02.02.03.04.03.1.02.21,0,.31-.07.32-.31.57-.64.61-.12.01-.23,0-.34-.05-.11-.04-.2-.12-.27-.2-.07-.08-.16-.19-.16-.29,0,0,0-.02.02-.03.03-.02.08.02.1.03.04.03.08.06.12.09.22.16.52.34.77.12.09-.07.14-.18.18-.29M103.48,15.94c.12.06.18.09.23.13.16.12.28.26.35.44.38.8.57,1.64.49,2.54,0,.04-.02.09-.03.16-.27-.08-.46-.24-.62-.45-.19-.26-.29-.56-.36-.88-.14-.62-.1-1.24-.06-1.93M102.11,17.1c-.29,0-.35-.06-.47-.46.09.06.12.09.15.12.17.17.36.21.58.11.08-.04.17-.05.22.05.04.08-.04.16-.18.17-.1.01-.2.02-.3.02M102.17,18.65s-.11.05-.16.05c-.16-.01-.29-.08-.4-.25.2.02.37.04.54.07.02,0,.04.04.04.06,0,.02,0,.06-.03.07M100.48,19.16s0-.02.02-.02c.02,0,.05.02.06.04.01.03.01.05.01.08,0,.03.02.05.03.08.03.06.08.11.14.13.04.01.08,0,.12,0,.01,0,.03-.01.04-.02.04-.02.08-.05.1-.09.01-.02.02-.03.04-.05s.03-.03.05-.03c.06,0,.09.1.1.14.02.04.03.09.05.13.03.08.07.23.17.24.03,0,.05,0,.08-.02.02-.02.03-.05.05-.07.06-.08.11-.18.17-.26.03-.05.08-.1.13-.11.05,0,.06.06.06.09.01.13-.3.49-.39.59-.08.09-.22.08-.3-.01-.08-.1-.14-.21-.18-.33,0-.01,0-.02-.02-.03,0,0-.02,0-.03,0,0,0-.02,0-.03.01-.08.04-.17.01-.24-.02-.03-.01-.06-.02-.09-.04-.02-.02-.04-.03-.06-.06-.08-.1-.12-.22-.08-.35M100.99,20.81s.03-.11.07-.12c0,0,.01,0,.02,0,.07.03.07.1.09.17.02.08.04.15.06.23.03.11.08.22.22.24.12.01.19-.06.26-.23.02-.05.03-.11.06-.16.02-.03.08-.04.11-.03.03,0,.08.06.08.08-.01.21-.26.52-.45.58-.12.03-.23.01-.32-.07-.15-.13-.22-.3-.21-.49,0-.07,0-.14.02-.2M101.89,21.86s.06-.08.09-.08c.19.03.16.31.19.46.02.13.06.26.16.35.11.09.24.02.32-.08.06-.07.09-.17.18-.21.03-.01.08-.02.1,0,.01,0,.02.02.02.03.08.16.14.33.24.48.11.18.26.19.42.04.03-.03.07-.07.1-.09.03-.02.07-.02.11-.02.09-.01.11.11.08.18-.13.38-.56.5-.85.22-.09-.08-.16-.19-.25-.29-.11.03-.22.07-.32.09-.17.03-.32-.03-.42-.16-.2-.28-.25-.59-.18-.92M103.71,25.88c-.05.47-.62.72-1,.45-.21-.15-.27-.29-.28-.69.16.17.25.29.36.4.19.18.38.17.54-.04.05-.07.08-.15.14-.21.03-.03.11-.05.15-.04.04.01.08.08.08.12M102.61,28.52h0s0-.01,0-.02c.76.55,1.44,1.83,1.53,2.61-.43-.28-.78-.62-1.05-1.01-.33-.46-.49-.99-.47-1.58M105.37,21.49c-.03.23-.08.44-.15.63-.49-.88-.63-2.38-.36-3.23.38.51.56,1.32.55,2.08-.02.17-.03.34-.04.53M105.2,16.76c-.08-.06-.16-.11-.24-.17-.2-.14-.41-.28-.6-.43-.44-.36-.78-.83-.99-1.4-.14-.36-.22-.69-.28-1.04.04.03.08.05.11.08l.17.16c.28.26.57.53.84.81.23.24.44.52.65.84.27.4.4.79.41,1.17-.02,0-.03,0-.06-.03M101.47,9.48c-.07-.01-.15-.02-.22-.04-.28-.05-.58-.09-.86-.18-.77-.24-1.29-.71-1.58-1.43-.01-.03-.02-.06-.03-.1.93.09,1.73.46,2.44,1.14.16.16.25.36.27.6,0,0-.01,0-.02.01M98.89,7.14s-.02,0-.02,0c-.05,0-.09.01-.14,0-.65-.08-1.2.09-1.64.53,0,0-.01,0-.02.01-.01-.17.04-.31.1-.43.06-.12.12-.21.18-.3.14-.19.34-.35.58-.49.14-.08.28-.1.42-.1.13,0,.25.02.37.05.13.03.21.12.24.29.02.12.02.21-.08.44M97.82,20.26c.05-.56.17-1.17.47-1.65l.09.24c.07.19.14.39.22.6.03.09.07.19.06.27-.02.44-.05.75-.17,1.18-.12.42-.43.71-.61,1.11-.16-.64-.12-1.09-.06-1.75M98.51,16.84l.1.12c.27.33.55.67.75,1.04.13.24.24.48.32.7.1.28.16.52.19.75.04.3.06.62.08.92v.23s.01.04,0,.06c-.83-.53-1.64-2.66-1.44-3.82M98.88,22.69s.04.03.04.05c.17.36.38.7.58,1.01.18.27.23.62.27.91.07.49.07,1.01,0,1.63,0,0,0,0,0,0-.83-.95-1.18-2.34-.9-3.61M99.74,23.37h0c-.08-.17-.18-.36-.3-.52-.16-.21-.25-.47-.29-.81-.03-.29-.04-.6-.02-.96.94.59,1.74,2.01,1.74,3.09h-.02c-.27-.08-.51-.2-.73-.36-.18-.14-.3-.28-.38-.44M100.21,25.46c.06.13.13.26.19.39.04.08.03.15-.01.24,0,0,0,0,0,0-.03,0-.07-.01-.1-.02-.03,0-.06-.02-.1-.04,0-.19.02-.38.03-.57M100.3,24.69c.51.29.94.63,1.29,1.02.48.54.74,1.19.78,2-.7-.42-1.75-1.94-2.07-3.03M100.73,26.43c.08.09.13.19.18.29l.02.03c.44.89.79,1.87,1.03,2.91,0,.03.01.07.02.11-.15-.1-.25-.23-.36-.35l-.07-.08c-.44-.5-.7-.97-.81-1.48-.11-.49-.11-.96-.01-1.43M106.22,27.77c-.11-.26-.27-.48-.35-.76-.05-.17-.05-.32-.02-.46.03-.11.07-.23.13-.35.33.36.56.93.68,1.53-.03.22-.07.42-.15.58-.01.03-.27-.49-.3-.54M106.26,28.62s-.09.09-.14.14c-.05.05-.09.09-.13.13-.01-.03-.03-.06-.04-.09,0-.03,0-.06,0-.09,0-.06,0-.12-.01-.18,0-.16,0-.32,0-.45.08.13.16.27.25.41l.08.14ZM106.46,24.19s-.01.07-.02.11c0,.07-.02.14-.05.2-.55-1.02-.77-2.11-.64-3.32,0,.01.02.02.03.04.69.87.92,1.87.68,2.98M113.51,29.61c0-.07-.02-.13-.04-.2,0-.01,0-.02,0-.04.05-.01.1-.02.15-.03.89-.1,1.84-.1,2.9,0,1.16.1,2.34.32,3.59.68.08.02.16.05.26.08,0,0,0,0,0,0-.05.03-.08.05-.11.07-1.37.66-2.62,1.11-3.83,1.37-1.15.25-2.37.3-3.72.16-1.32-.14-2.66-.5-4.12-1.09-.06-.03-.12-.05-.18-.08,0,0,0,0,0,0,1.32-.44,2.54-.76,3.75-.98.02.03.04.06.06.09.04.06.09.11.13.16.14.18.32.3.52.35.18.05.35.01.47-.09.12-.1.18-.27.16-.45M85.46,46.16c.09-.04.18-.04.28-.03.04,0,.07,0,.11,0h1.06c1.41,0,2.82,0,4.22.02l32.13.16s.1,0,.15,0c.13,0,.25,0,.36.02.04.08.03.16.01.26,0,.02,0,.05-.01.07-.09.67-.17,1.27-.26,1.89-.39,2.49-.98,4.95-1.73,7.29-.43,1.3-.86,2.44-1.31,3.49-.04.1-.09.2-.13.29h-.02s-31.09.06-31.09.06c-.07,0-.14,0-.22,0h-.02s-.02,0-.05-.01h-.01s-.03-.08-.05-.12c-.04-.09-.09-.18-.12-.28-.83-1.97-1.51-4.07-2.09-6.42-.47-1.92-.84-3.97-1.15-6.28-.02-.14-.03-.28-.04-.42h0ZM111.15,67.58c.05.05.11.09.17.13.03.02.07.05.1.08.21.17.21.22.08.44l-.04.05-.03.02s-.05-.03-.08-.1c0-.02-.02-.03-.03-.05-.18-.29-.4-.47-.68-.56-.18-.06-.29-.18-.36-.38-.03-.08-.06-.16-.09-.24-.31-.81-1.23-1.08-2.01-.86-.27.08-.51.23-.76.35-.69.32-1.48.23-2.21.19-.79-.04-1.57-.1-2.35-.21-1.02-.15-1.96-.51-2.96-.77-.38-.1-.77-.18-1.15-.25-.19-.04-.38-.08-.57-.12-.54-.12-1.02-.27-1.45-.48-.26-.13-.48-.25-.69-.38-.64-.41-1.04-.99-1.2-1.75-.01-.05-.03-.1-.03-.15-.02-.24-.18-.37-.32-.45-.25-.16-.55-.35-.82-.56-.39-.3-.6-.72-.63-1.29.02,0,.03-.01.05-.01l26.85-.03s.05,0,.08.01c0,.04-.01.07-.02.1-.84,1.83-1.82,3.55-2.9,5.1l-.05.06c-.36.07-.71.01-1.02-.17l-.18-.11c-.19-.12-.39-.23-.58-.34-.36-.19-.74-.19-1.13,0-.19.1-.37.21-.43.45-.12,0-.23.02-.35.03l-.17.02c-.38.04-.71.2-.97.47-.07.07-.14.15-.22.22-.24.25-.49.51-.76.72-.06.04-.12.1-.16.17-.14.2-.12.42.06.6M129.15,26.81v.06c-.13.66-.29,1.18-.51,1.65-.12.26-.25.5-.39.72-.44.71-1.1,1.16-1.95,1.33-.59.12-1.21.14-1.97.06-.96-.1-1.87-.42-2.75-.73l-.09-.03c-1.4-.49-2.74-.82-4.07-1.01-.77-.1-1.54-.16-2.31-.16-1.13,0-2.25.11-3.35.34-1.32.27-2.6.63-3.8,1.05-.25.09-.44.08-.64-.04-.33-.19-.68-.33-.99-.55-.04-.03-.08-.07-.07-.11,0-.02.02-.04.04-.06.63-.63,1.3-1.23,2.02-1.76,1.16-.86,2.5-1.44,4-1.72,1.52-.29,3.09-.38,4.69-.28,1.81.1,3.59.37,4.94.58l.62.1c1.1.18,2.23.36,3.33.58.53.1,1.07.1,1.69-.02.57-.1,1.07-.35,1.49-.73l.2-.17c-.02.32-.07.6-.12.88M109.17,18.48c0-.1-.03-.21-.05-.34.04-.02.09-.04.13-.07.15-.08.3-.15.44-.26.04-.03.22-.19.28-.15,0,0,.01.01.01.02.05.22.03.39.17.58.06.09.14.17.24.22.08.03.17.03.26.03.27-.03.51-.16.72-.33.19-.15.41-.32.55-.52.03-.05.07-.1.11-.16.01-.02.02-.03.03-.05.02.16.05.35.11.49.04.09.12.18.22.2.08.02.17-.01.25-.05.08-.03.17-.1.26-.12.1-.02.17,0,.26-.07.08-.06.13-.14.18-.23.13-.21.25-.44.31-.68,0-.03.16.22.17.24.04.1.1.2.21.24.09.04.2.02.29-.04.09-.05.15-.13.22-.2.22-.26.44-.52.67-.78.11-.12.21-.26.28-.41.06-.15.01-.32.08-.46.16-.01.31-.05.46-.11.38.08.86.32,1.12.2.02-.01.04-.03.06-.04.12,0,.24,0,.35-.02.22-.04.41,0,.64.13.02.05.04.09.05.13.05.11.09.22.15.32.19.34.55.5.94.42.2-.04.32-.16.46-.3.09.05.18.09.28.13.42.18.73.07.96-.31.14-.24.22-.53.24-.91,0-.11.01-.21.01-.32v-.07c.11-.04.21-.09.31-.13.07-.03.14-.06.21-.09.02.01.04.02.06.03.04.02.09.05.13.08.59.45,1.28.68,2.07.7.17,0,.28.05.39.15.37.34.68.56,1,.72.22.1.48.22.75.29.4.1.58.03.78-.34.08.05.16.1.23.16.62.45,1.32.84,2.1,1.15l.08.03c.16.06.28.1.38.05.08-.04.12-.13.17-.27.02.01.04.02.06.04.06.04.13.08.19.13.64.45,1.15.75,1.66.99.19.09.4.18.63.26.14.05.29.07.43.08h.03c.26,0,.41-.13.44-.41,0-.04,0-.09,0-.13.15.05.28.13.41.21.06.03.12.07.18.1,0,.03-.02.05-.05.09-.01.01-.02.02-.03.03-.24.28-.5.52-.78.72-.43.29-.9.38-1.4.25-.31-.08-.64-.17-.98-.25-.59-.14-1.28-.28-2-.29h-.02c-.94,0-1.77.32-2.45.94-.9.83-1.49,1.87-1.76,3.11-.11.52-.05,1.05.18,1.59.17.39.41.78.74,1.18.05.06.1.11.14.17-.07,0-.13,0-.21-.03l-.5-.09c-.37-.06-.74-.13-1.11-.19-1.79-.3-3.55-.58-5.35-.76-.83-.09-1.67-.13-2.55-.13-.36,0-.73,0-1.1.02-.03,0-.07,0-.1,0-.1,0-.19.01-.29-.01,0-.01,0-.02,0-.03,0-.05,0-.11.01-.16.01-.05.03-.09.04-.13.02-.06.04-.13.06-.19.03-.13,0-.26-.09-.35-.09-.09-.21-.13-.35-.1-.32.06-.57.23-.73.49-.06.11-.11.23-.16.34-.02.05-.04.11-.07.16-.01.03-.03.06-.04.1h0c-.17.09-.27.06-.37-.09-.1-.15-.22-.31-.36-.47-.12-.15-.25-.16-.33-.17-.08,0-.21.05-.31.22-.14.22-.19.46-.17.77,0,.05,0,.06,0,.06-.01.01-.08.03-.13.04l-.02-.03c-.03-.06-.06-.13-.1-.2l-.05-.08c-.05-.09-.11-.19-.19-.28-.09-.09-.19-.14-.31-.14h-.02c-.12,0-.23.07-.32.18-.07.09-.12.19-.18.29-.19-.3-.46-.39-.81-.27-.09-.22-.13-.46-.11-.74.02-.22.05-.45.09-.7.09-.58.06-1.12-.1-1.64-.09-.32-.24-.58-.46-.81-.09-.09-.17-.19-.25-.29-.03-.05-.07-.09-.11-.13.2-.32.31-.64.31-.98,0-.03.03-.08.07-.13l.03-.04s.06-.09.09-.13c.05-.07.1-.14.15-.21.12-.2.16-.44.13-.69M112.23,16.47c-.2-.02-.35,0-.43.2-.04.09-.08.17-.12.26-.04.09-.08.18-.12.26-.18.36-.49.59-.91.66h-.06s-.01,0-.02,0l-.06-.18c-.04-.14-.09-.28-.13-.43-.02-.07-.04-.14-.06-.21-.02-.08-.04-.15-.06-.23,0-.03-.02-.06-.03-.09.12-.07.24-.16.33-.27.07.17.31.19.46.09.15-.1.22-.28.29-.44.24.31.84.18.92-.21.2.17.53.16.73-.02.06-.06.12-.14.21-.16.12-.02.21.08.32.14.32.19.8-.05.83-.42.11.09.26.11.4.1,0,.06.01.12.01.17-.08.18-.2.34-.37.5-.1.1-.2.21-.29.32-.02.03-.05.06-.07.08-.02-.02-.02-.05-.03-.1,0-.03-.02-.08-.03-.11l-.02-.05c-.03-.07-.06-.14-.13-.19-.08-.07-.21-.09-.29-.08-.12.01-.21.11-.22.26,0,.06,0,.13,0,.19s0,.12,0,.18c0,0,0,.01,0,.02-.02.19-.08.35-.19.47,0,0,0,0,0,0h0s-.07.08-.13.12c-.07.05-.15.09-.23.12-.02,0-.05.01-.08.01v-.02s0,0,0,0c0,0,0,0,0-.01-.03-.22-.05-.43-.08-.64v-.05c-.04-.15-.12-.23-.25-.25-.02,0-.04-.01-.06-.01M113.78,24.82c0,.09-.02.17-.03.27-.04,0-.08,0-.12.01.02-.09.04-.14.06-.18.02-.04.05-.07.09-.1M110.76,25.68s-.06.04-.09.05c-.03.01-.06.02-.08.02.01-.1.04-.19.08-.27.05.05.07.11.09.2M108.75,23.53c0,.14-.09.18-.21.2-.06-.09-.07-.19,0-.27.03-.03.1-.06.14-.05.04.01.08.08.08.12M108.41,24.67c.08.03.14.08.19.16.02.02.04.05.05.09.09.18.18.37.27.55l.12.26.04.12.02.03c.07.08.15.12.2.11.05,0,.12-.03.17-.06.03-.02.05-.05.07-.08.03-.06.04-.12.05-.17,0-.04.01-.08.03-.11,0-.02.03-.05.03-.06,0,0,0,0,.02.03,0,0,0,.02,0,.03.02.09.01.19,0,.28-.02.09-.04.19-.08.3-.05.03-.1.05-.16.08-.02.01-.04.02-.06.03-.02,0-.04,0-.06,0s-.05,0-.07-.01c-.02,0-.05-.02-.08-.03-.34-.17-.64-.4-.9-.68-.11-.12-.18-.25-.2-.42,0-.06,0-.13,0-.21,0-.04,0-.08.01-.12,0-.03.02-.06.03-.09.02-.03.04-.05.07-.06.03-.02.07-.03.11-.03s.08,0,.12.03M108.02,22.54c-.1.1-.23.17-.38.14-.13-.03-.22-.1-.25-.24.49-.13.54-.2.58-.71,0-.04,0-.08,0-.13.01-.1.08-.17.16-.16.1,0,.16.08.17.16.04.35-.01.68-.27.93M107.82,25.95l.88.7-.18.12c-.23.16-.46.32-.68.48-.22.16-.43.33-.64.5-.07.06-.14.11-.21.17,0,0,0-.01,0-.02,0-.01,0-.02,0-.04,0-.08,0-.17.01-.25,0-.12.02-.24.02-.37.01-.52-.05-.95-.19-1.33-.01-.04-.02-.08-.03-.12,0,0,0,0,0-.01.32.14.65.19,1.01.17M129.26,25.06c-.25.43-.75.87-1.24,1.07-.42.17-.88.25-1.4.24-.1,0-.16-.02-.21-.07-.58-.55-.95-1.03-1.2-1.54-.3-.63-.29-.77.1-1.33.15-.21.33-.42.55-.66.18-.19.39-.32.67-.41,1.04.58,2.17,1.35,2.72,2.68M135.49,20.7c.34,0,.67,0,1.01-.01h.03c.06,0,.12,0,.18.01-.01.02-.02.03-.03.04-.61.69-1.24,1.22-1.93,1.6-.63.35-1.31.53-2.04.53h-.03c-.91,0-1.77-.2-2.5-.39-.31-.08-.61-.17-.92-.27-.25-.08-.51-.15-.77-.22-.45-.13-.86-.21-1.25-.24-.07,0-.14,0-.2,0-.62,0-1.17.24-1.64.7-.06.06-.13.13-.19.2.42-1.09.99-1.85,1.76-2.38.42-.3.91-.46,1.44-.49.61-.03,1.25.04,2.01.22.34.09.67.17,1.01.26.77.23,1.49.07,2.15-.46.11-.09.22-.19.32-.29.05-.05.1-.09.15-.13.06-.06.12-.12.18-.17v.06c0,.15,0,.3,0,.45,0,.21,0,.42,0,.63,0,.27.11.37.38.37,0,0,.01,0,.02,0,.28,0,.56,0,.84-.01M134.81,18.54c-.06-.23-.25-.27-.4-.31-.06-.01-.12-.03-.16-.05-.3-.14-.59-.3-.87-.48-.13-.08-.25-.17-.37-.26-.06-.05-.12-.09-.18-.14-.06-.05-.13-.08-.15-.16-.01-.05,0-.09,0-.14-.01-.06-.04-.11-.06-.16-.03-.07-.07-.14-.11-.21,0,.01.02.03.03.04,0,0,0,.02.01.03.49.46,1.1.8,1.76.96.14.03.28.06.41.01.07.07.13.14.2.22.23.24.36.47.4.73-.17.04-.34-.01-.5-.08M109.51,11.69v-.03c-.03-.07-.05-.13-.06-.18-.02-.1-.03-.2-.02-.32-.02-.21.02-.42.12-.64l.1-.22-.22.11c-.07.04-.14.07-.21.1-.16-.17-.31-.35-.47-.52,0,0-.14-.15-.12-.15.11,0,.23,0,.34-.03.5-.09.84-.35,1-.8.07-.2.12-.4.14-.58.06-.5,0-.98-.14-1.43-.13-.38-.26-.74-.43-1.17-.27-.69-.42-1.26-.49-1.82-.05-.49-.02-.94.11-1.37.14-.47.41-.85.82-1.15.25-.18.55-.34.95-.49.97-.38,2.02-.52,3.21-.46,2.28.13,4.47.57,6.52,1.31,1.44.52,2.78,1.21,3.98,2.06,1.08.75,2.24,1.55,3.43,2.32,2.57,1.66,5.19,3.6,7.77,5.76,1.73,1.43,3.57,2.98,5.65,4.73.14.07.26.15.37.24.19.14.34.3.46.48v.02c.81.71,1.57,1.44,2.25,2.16.29.31.6.64.87.99.19.25.36.53.53.8l.1.17c.03.05.05.12.08.2-.05.01-.1,0-.18-.03-.02,0-.05-.02-.07-.03-.32-.1-.59-.26-.91-.52-.03-.31-.05-.34-.33-.65-.36-.39-.73-.78-1.1-1.16-.13-.14-.27-.28-.4-.41-.05-.05-.11-.11-.16-.16-.05-.05-.12-.13-.2-.11-.08.02-.12.12-.12.19,0,.11.08.2.15.27.19.2.4.38.56.6.08.11.14.23.19.36.05.13.15.2.22.31-.47-.15-.84-.37-1.13-.69-.19-.2-.41-.38-.62-.55-.12-.09-.23-.18-.34-.27-.09-.07-.16-.15-.26-.2-.04-.02-.09-.03-.13,0-.04.03-.03.1-.01.16.1.27.27.5.49.69.22.18.36.43.52.66.02.04.02.08,0,.12-.01.02-.04.05-.09.05-.12,0-.21-.03-.28-.07-.2-.12-.4-.25-.56-.4-.24-.2-.46-.43-.7-.62-.25-.2-.52-.38-.8-.54-.08-.04-.16-.09-.25-.1-.03,0-.08,0-.09.03,0,.02,0,.04,0,.06.02.13.07.24.13.36.1.22.19.42.2.64,0,.02,0,.05,0,.08-.03,0-.06-.01-.08-.02-.11-.06-.22-.14-.32-.21-.07-.04-.13-.09-.2-.13-.52-.32-.96-.59-1.36-.83-.13-.08-.27-.13-.39-.18-.16-.06-.26,0-.33.07-.08.1-.08.22,0,.33.03.05.06.09.09.14.04.06.08.11.12.18.04.07.08.13.09.2-.06-.02-.1-.04-.15-.07-.56-.32-1.06-.72-1.47-1.07-.08-.06-.14-.17-.17-.23-.09-.2-.23-.36-.35-.5-.09-.1-.17-.19-.26-.28-.09-.1-.07-.17-.09-.3-.03-.16-.09-.32-.17-.46-.02-.01-.04-.02-.06-.03,0,0,0-.01-.01-.02.04.1.06.21.04.31-.02.11-.14.13-.24.15-.77.18-1.61-.03-2.22-.53.01.01.02.03.03.05-.01-.01-.02-.03-.03-.04.02.02.03.03.04.05.03.03.05.07.07.11.06.12.08.26.05.4-.03.13-.32.05-.41.01-.72-.3-1.41-.68-2.04-1.13.29.64.76,1.2,1.33,1.61.19.14.4.26.64.29.11.01.22,0,.32-.04l.04.05c.16.18.32.39.39.62-.01.01-.03,0-.06,0l-.2-.08c-.2-.08-.41-.16-.6-.26-.79-.39-1.53-.9-2.21-1.47-.05-.04-.11-.09-.18-.07-.16.04-.19.38-.22.5v.02s-.05-.02-.07-.03c-.08-.03-.16-.06-.24-.1-.69-.32-1.34-.73-1.99-1.26l-.07-.06c-.06-.05-.13-.11-.2-.15-.06-.04-.15-.06-.25-.06-.1,0-.19.05-.24.13-.06.08-.07.18-.04.28.02.05.04.1.07.14.04.06.07.12.08.19-.03,0-.07,0-.1,0-.24-.05-.48-.15-.69-.3-.25-.17-.49-.36-.72-.55l-.13-.11c-.05-.04-.1-.09-.16-.14l-.05-.05c-.13-.13-.27-.16-.41-.08-.12.07-.23.06-.37.04h-.02c-.54-.06-1.05-.28-1.51-.65-.07-.05-.12-.12-.18-.18-.03-.04-.06-.07-.1-.11l-.03-.03h-.04c-.16.01-.27.11-.36.2-.09.08-.16.15-.28.15-.03-.04-.08-.09-.12-.13-.11-.12-.23-.15-.32-.08-.02.01-.04.03-.04.04-.06.05-.11.14-.13.21-.02.07,0,.14.02.2v.05c.05.11.06.24.08.37,0,.1,0,.23,0,.37,0,0,0,.04,0,.05,0,.07-.02.14-.03.2-.02.09-.05.2-.12.32-.03.07-.08.11-.12.13s-.11,0-.18-.03c-.02-.01-.04-.02-.06-.03l-.03-.02s-.09-.06-.13-.1l-.08-.06c-.1-.06-.22-.13-.35-.1-.12.03-.19.15-.25.26v.04s-.04.08-.07.11c-.04.04-.11.05-.18.04-.08-.01-.16-.06-.2-.12-.08-.12-.12-.21-.13-.3-.03-.27-.21-.39-.39-.47-.02,0-.03-.01-.05-.02-.14-.06-.27-.1-.4-.13-.17-.03-.32-.02-.48.01,0-.23-.08-.47-.21-.62.02-.02.03-.04.03-.04.19.02.39.05.56-.02.18-.07.32-.25.28-.43-.02-.09-.08-.22,0-.27.03-.02.08-.02.12-.01.42.03.77-.37.81-.79.05-.41-.12-.82-.31-1.19-.23-.47-.49-.93-.91-1.24.38.65.6,1.4.63,2.16,0,.19,0,.39-.11.54-.19.26-.66.22-.8-.06-.02.24-.13.48-.34.61-.06.04-.13.06-.19.08-.07-.7-.57-1.5-.8-2.16.06-.19,0-.4-.1-.58-.05-.11-.11-.21-.17-.31.08.06.17.11.29.11.24,0,.4-.24.45-.46.05-.23-.04-.47-.18-.65.23.27.6.43.94.33.4-.12.62-.67.34-.98.33.09.71-.07.88-.37.17-.3.1-.71-.16-.94.36.01.72.02,1.07.03.18,0,.42-.04.43-.22.29.18.61.38.96.39.06,0,.12,0,.18-.02.17.36.44.68.67,1.02.28.42.49.94.33,1.41-.23-.03-.4-.23-.55-.41-.44-.55-.86-1.13-1.4-1.57.66.77,1.01,1.79.98,2.8-.13.06-.26-.05-.35-.16-.61-.74-.88-1.79-1.7-2.29.34.5.66,1.02.95,1.55.32.58.6,1.32.22,1.86-.4-.85-.91-1.65-1.51-2.38.22.38.44.76.67,1.13.19.32.41.68.45,1.06.04.4-.22.58-.27.91-.14.97,1.19-.35.82-.46.25.08.54-.09.66-.32.13-.23.13-.51.09-.77.2.12.47.11.66-.03.18-.14.27-.4.2-.62.08.2.36.27.54.17.19-.1.28-.33.28-.54,0-.21-.09-.42-.18-.61-.33-.69-.82-1.29-1.4-1.79.22-.09.4-.28.41-.51.24.14.48.29.76.32s.59-.12.66-.38c.08-.27-.11-.42-.19-.65.26-.04.44.3.7.31.05,0,.1-.01.12-.05.01-.02.01-.05.01-.07-.01-.41-.32-.75-.65-.95-.34-.21-.73-.33-1.1-.47-.21-.08-.42-.16-.61-.27-.23-.12-.46-.26-.71-.36,0,.12.22.25.3.31.14.11.29.22.45.31.35.21.69.43.98.71.18.17.41.35.34.62-.05.23-.25.41-.49.41-.34.04-.65-.14-.94-.32.11.17-.04.4-.23.45-.19.06-.39,0-.58-.07l-.81-.27c.09.09.1.29-.01.39-.16.13-.39.1-.6.05-.57-.13-1.13-.33-1.66-.58.2.3.52.52.71.83.19.31.15.82-.2.93-.35.11-.66-.23-1.02-.31.16.16.32.33.39.54.08.21.05.48-.12.62-.18.14-.44.12-.65.05-.21-.08-.38-.26-.6-.3.22.13.4.51.28.77-.12.26-.48.24-.73.13.3.19.46.68.21.97-.24.29-.77.28-1-.02h0c.12.27.26.56.49.74,0,0,0,0,0,0,0,0,0,0,0,0,.03.03.07.05.11.08.24.14.59.11.78-.07.05.13.09.26.13.39.09.69.14,1.39.1,2.09v.02c-.03.13-.06.25-.15.35-.05.05-.12.09-.19.11-.1-.1-.14-.24-.17-.37-.2-.86-.4-1.72-.61-2.59h0c.04.73.06,1.46.06,2.19,0,.18,0,.37-.09.53-.05.09-.13.17-.22.21-.08-.09-.15-.22-.18-.34-.11-.37-.22-.73-.33-1.1.1.46.11.93.04,1.39-.04,0-.08,0-.11.01-.04.02-.07.07-.09.11-.05.09-.08.2-.11.3-.16.03-.35-.03-.47-.16-.17-.19-.21-.45-.24-.7-.06-.47-.13-.95-.2-1.42.03.43.07.86.1,1.29.02.26.04.52-.03.77-.06.25-.23.49-.47.57-.08.03-.17.04-.24,0-.17-.07-.2-.28-.21-.46-.02-.37-.04-.73-.06-1.1.02.59-.01,1.18-.27,1.7-.08.17-.28.32-.43.29,0,0,0,0,0,0,0,0,0,0,0,0-.03-.01-.06-.03-.09-.06-.02-.02-.02-.05-.03-.08,0,0,0-.02,0-.02-.03-.05-.05-.11-.06-.16-.11-.37-.22-.74-.33-1.1.06.29.09.59.08.89,0,.27,0,.51-.18.73-.06.07-.12.14-.2.17-.15.07-.34-.03-.45-.14-.17-.19-.21-.45-.24-.7-.02-.14-.05-.28-.06-.42,0-.12.03-.24-.06-.34-.01-.01-.02.21-.01.23.01.13.02.27.03.4.02.26.04.52-.03.77-.06.25-.23.49-.47.57-.08.03-.17.04-.24,0-.1-.04-.17-.15-.21-.3-.1-.35-.07-.91-.09-1.12,0-.01,0-.03,0-.04,0,0,.02-.01.03-.01.45-.09.48-.49.47-.87,0,0,0-.02,0-.02,0,0,0,.01,0,.02,0,.01.02.02.03.03.14.08.31.09.46.05.16-.04.3-.12.43-.2.06-.04.13-.08.17-.14.1-.14.07-.34.03-.51.29.19.68.17.96-.02,0,0,0-.02.01-.02.33-.2.39-.72.15-1.01-.02-.02-.05-.03-.07-.05-.02-.02-.04-.04-.05-.06.02.02.05.03.06.05.02.02.04.04.06.06.21.13.54.08.67-.14.1-.18.05-.41-.09-.56.04-.02.08-.05.1-.08.15-.23-.26-.43-.34-.7.08.21.44.13.51-.08.07-.21-.05-.44-.17-.63.1.19.39.19.54.04.14-.15.15-.4.07-.59-.08-.19-.23-.35-.38-.5.1.11.3,0,.34-.14s-.03-.29-.1-.42l-.41-.81c.1.03.2.06.31.09.17-.36.09-.81-.18-1.1.11.02.22.04.33.06-.03-.48-.23-.95-.56-1.31.15.21.29.46.25.71-.04.25-.33.48-.56.36.27.26.34.71.17,1.04-.04.07-.09.14-.08.22,0,.08.06.14.1.2.19.28.22.67.06.98-.03.06-.07.13-.09.2-.04.18.1.36.14.54.04.18-.18.43-.31.28.13.15.16.61,0,.73-.09.07-.2.1-.31.12.07.21.14.46.01.64-.09.14-.26.19-.43.21-.04,0-.07,0-.11.01-.02,0-.03,0-.05,0,.08.29.09.61.03.91-.01.05-.03.11-.07.14-.03.03-.08.04-.13.04-.28.03-.5-.07-.75-.16-.04.14-.03.3-.07.45-.04.16-.13.31-.27.39-.15.09-.35.1-.53.08-.27-.03-.76-.12-.86-.42.55-.34,1.16-.85.93-1.6M116.22,12.17c-.04-.12-.08-.25-.12-.37.02-.02.04-.05.06-.07.02.15.04.29.06.44M108.37,18.68c.03-.07.03-.15.08-.2,0,0,.01-.01.02-.01.02,0,.03.01.03.03.09.19.02.43-.1.59-.17.22-.41.23-.67.13-.05.09-.08.17-.12.24-.06.11-.12.22-.21.31-.12.12-.29.17-.44.1-.14-.06-.23-.19-.31-.31-.03-.04-.07-.09-.07-.14,0-.02,0-.04.02-.06,0,0,.02-.01.03-.01.05,0,.09.03.12.06.1.09.2.24.35.23.14-.01.22-.16.26-.28.05-.14.06-.3.09-.46.01-.06.02-.14.04-.2.02-.06.14-.08.18-.04.05.05.08.12.12.17.13.16.3.18.43.03.05-.06.09-.13.12-.21M108.03,17.82s.02.05.02.07c0,.02,0,.04-.02.05-.01.03-.03.05-.05.08-.03.05-.06.1-.1.14-.07.08-.16.16-.25.21-.11.06-.22.07-.33.02-.1-.05-.19-.12-.26-.22-.03-.05-.05-.1-.08-.14-.03-.05-.05-.1-.04-.16,0-.02,0-.04.02-.05.02-.02.05-.02.08-.01.03.01.05.03.07.06.04.05.08.09.1.14.02.05.06.09.11.13.1.07.24.08.35.02.14-.07.15-.21.24-.32.01-.01.02-.03.04-.04.03-.02.08-.02.1.01M106.58,17.26c.06-.06.12-.14.16-.21.11-.19.16-.42.16-.63,0-.03,0-.07.01-.1.01-.03.04-.06.08-.05.03,0,.06.04.08.07.06.09.05.22.08.32.04.13.11.24.26.24.15,0,.24-.09.3-.2.05-.09.06-.27.18-.29.03.04.04.09.03.14-.01.09-.06.19-.09.27-.04.08-.1.15-.18.2-.2.14-.4.04-.61-.03-.08.12-.14.25-.24.36-.06.07-.26.23-.35.12-.07-.09.07-.15.12-.2M100.05,5.93c.1-.11.22-.17.33-.18.05,0,.11,0,.16,0,.18,0,.36,0,.52.03.37.1.68.08.96-.08h.03c.14.06.27.12.42.16.15.05.28,0,.4-.05.03-.01.07-.03.1-.04.52.28.76.71.73,1.29v.1c-.01.12-.02.23-.04.34-.08.31.09.52.28.7.05.04.1.07.15.1.02.01.04.03.06.04.52.35.94.8,1.25,1.33.23.39.42.82.59,1.31.01.03.01.07.02.11,0,.01,0,.03,0,.04-.21.21-.43.36-.7.45-.16.05-.3.06-.43,0-.1-.04-.21-.07-.34-.07-.06,0-.13,0-.21.03-.09.02-.19.02-.31.01-.04,0-.07,0-.11,0-.02-.2-.03-.38-.05-.55l-.02-.26s0-.08-.01-.12v-.03c-.04-.87-.45-1.57-1.26-2.14-.15-.11-.35-.22-.62-.13-.06.02-.12.03-.19.03-.03,0-.06,0-.09.01-.13.01-.22-.01-.32-.1-.55-.5-1.18-.83-1.85-.97,0,0-.01-.01-.02-.02.05-.28.1-.61-.05-.94.05-.03.1-.06.15-.08.17-.07.32-.18.46-.34M74.61,17.8c-.08.08-.12.2-.17.3-.05.1-.13.16-.21.23-.16.15-.32.31-.49.46-.11.1-.28.22-.44.23-.02,0-.05,0-.07-.01-.02-.01-.04-.04-.05-.06-.1-.18-.18-.38-.22-.58-.01-.05-.02-.12-.07-.15-.25-.17-.53.52-.61.67-.13.23-.41.43-.65.55-.09.05-.17.08-.27.06,0-.03-.01-.07,0-.1,0-.07.02-.13.03-.2.02-.08.03-.17.04-.25,0-.09-.04-.2-.1-.25-.1-.08-.23-.07-.34.01-.05.04-.1.08-.16.13-.02.02-.05.04-.07.06-.48.42-.91.72-1.34.95-.2.11-.42.19-.6.25-.06.02-.14.03-.21.03-.01,0-.02,0-.03,0-.03-.03-.02-.07,0-.12.1-.24.21-.48.32-.71l.02-.05c.03-.06.06-.11.09-.17.03-.05.06-.1.08-.15.07-.12.04-.25-.07-.33-.1-.08-.24-.08-.34,0-.11.09-.22.18-.32.29-.13.14-.26.28-.39.42-.16.17-.32.35-.49.52-.12.13-.26.25-.43.38-.24.2-.49.32-.75.38-.03-.09,0-.17.03-.26l.02-.07s.02-.08.03-.12c.02-.08.05-.17.06-.25,0-.1-.08-.2-.13-.24-.06-.05-.18-.04-.24-.01-.05.02-.08.05-.11.08-.02.02-.04.03-.06.05-.1.07-.19.13-.29.2-.2.15-.42.3-.64.42-.46.25-1,.56-1.51.92-.28.2-.54.32-.79.37-.03,0-.05,0-.09,0l.02-.04c.03-.09.06-.17.1-.25.39-.87.94-1.6,1.64-2.17l.06-.05c.27-.22.54-.44.83-.64,1.62-1.13,3.05-2.38,4.24-3.46l.6-.55c1.24-1.13,2.53-2.29,3.81-3.42,2.99-2.63,6.48-4.45,9.67-6.8,1.17-.86,2.33-1.57,3.71-2.05.24-.08.49-.17.73-.25.55-.19,2.22-.71,2.45-.77,1.74-.46,3.53-.64,5.33-.54.8.04,1.43.14,2,.31.37.11.65.23.9.38.46.27.74.68.82,1.2.06.33.06.57.02.8-.06.41-.14.81-.21,1.18-.01.06-.04.12-.07.19,0,.02-.01.03-.02.05l-.39-.06-.43.03h-.04s-.07.05-.11.07c-.06.03-.12.06-.18.1-.3.2-.38.41-.29.76v.04c.03.06.04.12.06.18-.01.02-.03.05-.06.07-.02.02-.05.03-.07.05-.03.02-.07.05-.1.07-.06.05-.12.1-.18.14-.11.09-.23.18-.34.29-.49.51-.64,1.11-.43,1.8,0,.04.02.07.03.12l-.04.11c-.03.08-.06.16-.09.24-.05.14-.09.29-.12.44-.08,0-.17-.02-.23-.08-.15-.15-.14-.39-.09-.6.06-.25.18-.49.35-.68-.17.12-.43-.03-.48-.23-.05-.2.04-.41.15-.58.08-.12.17-.24.25-.37-.07.03-.15.03-.21-.02-.1-.1-.1-.27-.06-.41.03-.14.09-.28.15-.42-.18.25-.36.5-.54.76-.19.27-.49.65-.45,1.01,0,.01,0,.03.01.04.01.02.04.02.06.02.03,0,.05,0,.08,0,.03,0,.07-.03.1-.04.07-.04.17-.11.12.02-.03.09-.07.18-.09.27-.05.18-.09.37-.1.55-.01.14-.02.28.04.41.05.13.18.24.32.23-.27.45-.4.99-.37,1.51,0,.06.02.11.03.17l.02.04s.05.1.1.12c.07.04.16.03.24.01.2-.05.38-.17.51-.33,0,.06.01.12.03.17,0,.05.03.09.06.12l-.03.03.12.03s.02,0,.03,0c.05.01.11.01.16,0,.07-.03.15-.07.22-.11l.04-.02c-.03.1-.1.2-.28.42l-.21.47v.05s-.02.09-.03.13c-.05.25-.11.52-.14.8-.02.16-.03.32-.02.49,0,.02,0,.04,0,.06-.11.12-.16.31-.17.48-.1.95-.07,1.92.07,2.86,0,.02.01.03.02.05,0,.01,0,.03,0,.04.05.14.1.28.18.41-.01.09-.02.19-.03.28v.04c-.03.13-.04.24-.15.31-.2-.04-.35-.17-.48-.44-.03-.06-.05-.13-.08-.19-.03-.08-.06-.16-.1-.23-.15-.29-.27-.34-.57-.22l-.06.02c-.09.03-.16.07-.24.09-.27.06-.25-.24-.32-.41-.11-.29-.28-.56-.38-.86-.18-.53-.15-1.08-.18-1.63-.02-.48-.03-.96-.01-1.44-.27.58-.39,1.22-.54,1.84-.05.22-.09.34-.32.43-.1.04-.22.04-.31-.02-.13-.09-.16-.27-.16-.43-.01-.42.04-.84.15-1.25.08-.3.14-.59.27-.88l-.73,1.29c-.1.17-.04.36-.29.2-.2-.13-.31-.38-.34-.62-.14.29-.61.32-.8.07-.11-.15-.12-.36-.11-.54.03-.76.25-1.5.63-2.16-.42.31-.69.77-.91,1.24-.18.37-.35.78-.31,1.19.05.41.4.82.81.79.04,0,.08,0,.12.01.08.05.02.17,0,.27-.05.18.1.37.28.44.18.07.38.05.56.02,0,0,.02.01.03.03-.19.22-.27.62-.16.92-.14,0-.21-.05-.33-.12-.16-.1-.35-.21-.53-.17-.13.03-.23.11-.32.2-.29.28-.47.58-.71.9-.09.12-.21.21-.37.17-.38-.08-.35-.74-.29-1.03.03-.17.1-.34.09-.52,0,0-.15.1-.17.12-.06.05-.09.12-.13.19-.1.2-.19.4-.3.59-.07.12-.18.37-.29.44-.06.03-.13.03-.19,0-.06-.03-.11-.07-.16-.12-.37-.32-.41-.95-.27-1.4.03-.09.06-.2-.01-.27-.03-.03-.07-.04-.11-.04-.12,0-.33.2-.43.12-.05-.03-.09-.1-.12-.18-.02-.03-.03-.07-.06-.1-.05-.09-.12-.14-.2-.16-.08-.01-.16.01-.24.07-.08.06-.15.13-.21.19-.32-.12-.57-.46-.51-.8-.73.37-1.5.63-2.31.78-.24.04-.57.02-.61-.22-.02-.1.04-.21.1-.3.27-.41.64-.75,1.07-.99-.7.34-1.45.58-2.22.69-.31.05-.74-.02-.76-.33,0-.13.08-.24.16-.35.3-.36.66-.68,1.06-.93-.64.42-1.34.75-2.08.97-.3.09-.65.15-.91-.03-.18-.13-.2-.41-.08-.59-.17.16-.45.23-.67.29-.26.07-.53.1-.8.09-.09,0-.19-.02-.26-.08-.24-.21.04-.62.24-.85-.29.3-.59.59-.8.96-.08.14-.17.36-.08.52.14.25.56.16.79.1.15-.04.3-.08.45-.13.11-.03.22-.07.33-.11.06-.02.28-.08.31-.14-.17.43.3.88.76.9.46.02.87-.25,1.25-.51-.15.21,0,.53.23.65.24.11.52.08.77.02.45-.09.89-.23,1.31-.41-.16.41-.77.73-.56,1.12.09.16.28.23.46.26.72.13,1.48-.03,2.08-.44.13-.09.27-.2.43-.19.13,0,.24.09.35.14.11.05.23.07.35.06-.14.17-.3.37-.52.54-.26.2-.56.29-.94.29-.15,0-.29-.01-.39-.12-.11-.11-.25-.1-.39.02-.09.09-.18.18-.26.27-.07.07-.14.14-.21.21-.3.29-.63.5-.99.6h-.03s-.05.03-.07.03c-.04-.02-.08-.05-.09-.05,0-.04,0-.09.01-.14,0-.04.01-.08.02-.13,0-.14-.06-.25-.18-.28-.08-.03-.2,0-.27.04l-.49.34c-.4.28-.79.55-1.19.83-.14.09-.29.17-.46.26-.08.04-.17.07-.25.09-.13.03-.18,0-.23-.12-.01-.04-.02-.07-.03-.11-.01-.06-.03-.12-.05-.18-.03-.08-.1-.14-.18-.16-.08-.02-.16,0-.23.05-.08.06-.16.14-.23.21l-.05.05c-.4.38-.83.73-1.3,1.01-.43.25-.9.4-1.35.6-.02,0-.04.02-.06.02-.04,0-.08-.03-.11-.05l-.58-.53c-.12-.11-.33-.3-.49-.12M80.72,22.08c-.31.07-.62.15-.94.22-.47.11-.95.23-1.43.33-.38.09-.77.15-1.19.19-.66.08-1.31-.04-1.9-.36-.71-.37-1.33-.91-1.92-1.64.03-.01.06-.02.08-.02h.53c.36,0,.71,0,1.06,0,.21,0,.36-.02.44-.12.08-.1.07-.25.03-.45-.05-.28-.12-.55-.17-.83-.04-.18-.08-.37-.12-.55,0-.01,0-.03,0-.05.07.05.12.09.18.13.42.32.83.56,1.25.72.53.2,1.05.26,1.56.18.33-.05.66-.1.99-.16.18-.03.36-.06.54-.09.65-.11,1.2-.13,1.73-.06.72.09,1.31.34,1.8.79.76.68,1.2,1.53,1.31,2.52-.4-.64-1.02-.98-1.84-1-.7-.02-1.39.11-2.01.25M80.45,25.4c0-.06,0-.13.02-.17h0c.08-.28.23-.53.44-.75.2-.2.41-.39.62-.58l.02-.02c.12-.11.24-.21.36-.31.16-.14.33-.28.49-.42.21-.19.45-.42.57-.72.49.01.95.31,1.17.76.16.32.23.69.22,1.13,0,.06-.02.13-.05.22-.16.48-.69,1.28-1.13,1.71-.84-.05-1.69-.31-2.73-.82,0,0,0-.02,0-.03M84.62,30.75h0c-.79-.12-1.42-.3-1.98-.56-.85-.39-1.44-.99-1.81-1.84-.3-.69-.46-1.43-.47-2.18,0-.02,0-.05,0-.08,0-.02,0-.04,0-.07.06.02.12.05.18.07l.14.06c.71.3,1.26.48,1.81.57.56.09,1.11.12,1.64.1,1.07-.05,2.1-.26,3.15-.49l.93-.21c1.06-.24,2.15-.48,3.23-.7.9-.19,1.81-.29,2.72-.3h.08c.96,0,1.97.15,3.16.46.33.09.66.19.99.29.18.06.35.11.53.17.18.05.29.13.37.27.1.17.22.33.35.5.04.06.09.12.13.18l.05.07.07-.04c.15-.09.17-.23.18-.34,0-.06.02-.11.03-.14.03.02.07.04.1.06l.08.05s0,.02,0,.02c0,.02,0,.04,0,.05,0,.09,0,.18,0,.27,0,.14,0,.29,0,.44.04.51.19,1,.46,1.45.2.34.46.66.75.97.03.03.05.05.08.09-.06-.01-.11-.02-.16-.03-1.32-.33-2.61-.59-3.86-.77-1.73-.25-3.32-.28-4.87-.1-.83.1-1.73.29-2.83.61-1.05.3-2.44.67-3.86.92-.37.06-.74.13-1.12.18-.12.02-.22.02-.3,0M83.02,33.35c.27.14.54.29.8.43.21.12.43.24.64.35,0,0,0,.02,0,.03.01.03.01.05.01.07-.12,2.99-.1,5.67.08,8.21-.04-.01-.07-.02-.09-.03-.13-.08-.25-.16-.38-.24-.09-.06-.18-.12-.27-.18-.47-1.76-.99-7.41-.8-8.65M82.12,41.64v-.06s.02,0,.02.01c.05.03.09.05.13.08.23.14.46.29.68.44.48.31.95.61,1.43.91.16.1.23.22.24.4.15,2.15.43,4.38.85,6.63.34,1.83.77,3.65,1.31,5.43.49,1.62,1.03,3.35,1.77,4.87,1.51,3.08,3.28,5.94,5.58,8.49.06.07.13.14.19.23-.27.4-1.16,1.33-1.63,1.72-.05-.02-.09-.06-.14-.12-.02-.02-.04-.05-.07-.07-2.55-2.47-4.61-5.37-6.1-8.62-1.55-3.38-2.68-6.88-3.36-10.43-.37-1.89-.62-3.81-.76-5.71-.1-1.36-.15-2.68-.16-3.94,0-.08,0-.17,0-.27M72.04,26.38s.01-.06.02-.1c0,0,.01,0,.02,0,.05.03.1.06.14.09,1.71,1.22,3.54,2.46,5.43,3.68l.03.02c.06.04.12.08.17.12.16.13.24.28.25.5.06,1.35.15,2.96.27,4.6.05.64.12,1.29.18,1.92.04.34.07.68.1,1.02,0,.05.01.09.02.14.02.11.03.22.02.33-.39-.24-.77-.49-1.15-.73l-2.04-1.31c-1.27-.81-2.54-1.63-3.82-2.45.1-3,.22-5.49.36-7.84M69.43,26.93c-1.07-1.32-2.16-2.67-3.24-4.02.8.28,1.6.56,2.4.84.83.29,1.67.58,2.5.87.09.27.18.54.28.81l.13.38.02.07c-.01.14-.02.28-.02.42,0,.18-.01.35-.03.52-.38.07-1.54.14-2.02.13M68.4,34.24c-.38,0-.76,0-1.15,0-.19,0-.33-.06-.46-.22-.42-.51-.84-1.01-1.26-1.52-.25-.3-.51-.61-.76-.91-.3-.36-.59-.71-.89-1.07l-.68-.82s-.06-.07-.09-.11c.02,0,.05.02.08.03.02.01.04.02.06.02,1.05.41,2.1.81,3.15,1.22.23.09.46.18.68.27.54.21,1.1.43,1.66.63.2.08.29.18.32.37.03.17.08.35.12.51.02.06.03.12.05.18.13.5.12.84-.02,1.4h-.05c-.27.02-.5,0-.76,0M76.49,71.64h0c-.09-.07-.16-.16-.24-.26l-.05-.06c-.99-1.26-1.86-2.66-2.64-4.31-.77-1.61-1.43-3.4-2.09-5.63-.68-2.31-1.21-4.69-1.57-7.08-.24-1.61-.42-3.3-.54-5.03-.14-2-.19-4.17-.15-6.63.03-1.54.1-3.06.23-4.51.1-1.22.22-2.45.34-3.64l.04-.41c0-.12.02-.24.06-.35.01,0,.02,0,.03.01,2.05,1.31,4.11,2.63,6.16,3.95l.6.38s.02.02.03.04c0,.01.02.02.03.03v.02c0,.07,0,.14,0,.22-.07,2.04-.06,4.17.05,6.32.14,2.87.46,5.43.96,7.84.61,2.91,1.53,5.86,2.75,8.76.94,2.25,1.92,4.26,3.01,6.13,1.04,1.81,2.04,3.21,3.13,4.43.35.39.72.76,1.08,1.12.18.17.35.35.53.53.08.07.15.15.23.23-.09.06-.18.09-.28.12l-.09.03c-1.07.38-2.21.61-3.37.69-1.11.07-2.2-.03-3.25-.31-.7-.19-1.42-.47-2.27-.9-.86-.44-1.71-.98-2.7-1.72M102.38,88.39c-.07.26-.3.48-.61.57-.02-.07,0-.14,0-.22v-.02c.02-.12.02-.23.03-.35,0-.2.01-.38.07-.57h0s.09,0,.13,0c.17.03.29.1.35.19.06.09.07.22.02.39M102.62,84.29l-.05.63c-.06.78-.12,1.59-.21,2.4h0s-.09,0-.12-.02c-.32-.08-.64-.05-.95,0-.49.05-1.02.09-1.55-.03-.13-.03-.25-.06-.34-.1-.24-.11-.31-.25-.26-.52.04-.23.16-.4.34-.52.16-.1.35-.2.54-.27.12-.05.23-.08.36-.12.08-.02.16-.05.25-.08.14-.05.29-.09.42-.17.12-.07.2-.17.23-.28.03-.12,0-.25-.09-.37-.08-.11-.18-.21-.29-.28-.17-.11-.39-.25-.62-.36-.73-.34-1.53-.54-2.37-.59-.34-.02-.68-.03-1.03-.04h-.28s.02-.08.03-.1c.13-.22.25-.43.38-.65.15-.26.31-.52.46-.79,1.18-2.08,2.24-4.52,2.82-6.9.04-.14.07-.28.09-.42,0-.07,0-.13-.04-.19-.06-.04-.12-.09-.17-.13-.07-.02-.15-.01-.22.02-.09.04-.17.1-.25.15l-.08.05c-1.34.87-2.46,1.58-3.25,1.97-1.51.74-2.92,1.23-4.32,1.49-1.28.25-2.62.29-3.98.16-3.21-.32-6.09-1.55-8.81-3.79-.33-.27-.64-.56-.95-.84l-.25-.23.03.02c.8.47,1.57.84,2.34,1.13,1.52.57,3.12.76,4.86.57.88-.09,1.77-.28,2.63-.56,1.2-.38,2.34-.99,3.47-1.86,1.06-.81,2.08-1.75,3.1-2.87.08-.09.17-.18.25-.27,0,0,.01,0,.02,0,1.63,1.72,3.42,3.34,5.39,4.88.03,0,.06.02.09.04.03.02.06.06.08.09.86.67,1.76,1.32,2.69,1.96-.05,2.41-.18,4.96-.39,7.81M99.4,84.46c.14,0,.26.07.4.13.04.02.07.03.1.05l.09.04c.23.1.45.2.62.38-.12.07-.25.1-.39.14-.1.02-.2.05-.29.09-.15.06-.29.13-.44.19l-.21.09c-.02-.18,0-.51.12-1.1M104.83,76.86s-.06.04-.09.06c-.11-.04-.21-.1-.31-.17l-.06-.05c-1.84-1.17-3.69-2.53-5.49-4.06-.14-.12-.28-.25-.42-.37l-.13-.12c.06-.8.48-1.39,1.26-1.8.06-.03.13-.04.22-.06l.14-.02c.08-.01.15-.03.23-.04.53-.11.84-.46.87-.96.02-.23.12-.38.3-.54.23-.21.46-.26.72-.17.62.23.99.1,1.38-.48.02-.03.04-.06.07-.08,0,0,.02,0,.03,0,.12-.04.4.07.54.06.18-.01.34-.08.52-.09.39-.03.75-.21,1.13-.24.1,0,.2,0,.31.01.32.04.64.12.94.24.18.07.24.22.41.31.21.11.42.03.59-.11.03-.03.07-.06.1-.09.03-.03.05-.05.08-.08.06-.05.13-.1.19-.13.16-.08.35-.08.5,0,.15.09.25.24.26.43,0,.04,0,.08-.02.12-.02.03-.03.07-.05.1-.02.04-.04.08-.06.12-.15.31-.13.36.15.56.1.07.13.15.09.27-.03.1-.07.2-.1.3l-.05.13s-.04.09-.06.14c-.03.08-.07.16-.1.25-.1.32-.01.55.27.73.09.06.2.11.29.16l.09.04c.43.21.59.29.4.93-.05.18-.12.37-.18.55-.05.13-.09.26-.13.39-.04.14-.12.25-.26.35-.16.12-.32.25-.47.38-.25.2-.51.41-.77.6-.99.74-1.98,1.47-3.09,2.28-.07.05-.15.1-.22.15M107.45,88.92c-.3-.07-.52-.36-.6-.79l.03-.02c.06-.04.1-.08.16-.12.06-.04.13-.08.2-.11l.03-.02s0,0,0,0c.02.03.04.06.05.08.08.34.15.66.12.98M124.4,77.57c-1.53.46-3.12.62-4.86.49-2.12-.16-4.29-.75-6.64-1.8-1.11-.5-2.2-1.06-3.26-1.68l-.04-.02c-.1-.05-.2-.11-.3-.15-.08-.03-.17-.03-.24.02-.08.05-.12.13-.12.22,0,.14.03.28.07.42.5,1.92,1.09,3.61,1.81,5.14.51,1.09,1.08,2.16,1.69,3.2.02.03.04.06.06.09.04.06.08.12.09.18-.16.04-.33.04-.49.05h-.09c-.46.03-.93.05-1.39.07l-.78.04c-.42.02-.84.13-1.24.31-.23.1-.42.24-.56.42-.25.32-.23.62.07.88.15.13.32.23.49.34.44.25.84.58,1.19.99.04.05.08.1.11.15l.02.03c-.1.3-.14.3-.4.27-.17-.02-.33-.05-.48-.09-.82-.23-1.58-.13-2.28.3-.02.01-.04.02-.06.03-.01,0-.02,0-.03.01-.02-.01-.02-.03-.02-.07v-.02c-.02-.18-.03-.36-.03-.54-.04-1.02-.08-2.05-.12-3.07-.03-.68-.05-1.35-.08-2.03-.06-1.64-.14-3.29-.21-4.94,0-.07,0-.14,0-.22v-.09c.11-.09.23-.18.35-.27,1.73-1.26,3.2-2.42,4.5-3.55,1.18-1.02,2.29-2.07,3.28-3.11.07-.07.14-.14.22-.21.07.04.11.1.15.16.01.02.03.04.04.06.52.69,1.1,1.36,1.73,1.99,1.7,1.71,3.74,2.8,6.08,3.24,2.42.45,4.6.28,6.68-.53.76-.29,1.49-.71,2.24-1.26-2.15,2.26-4.49,3.74-7.14,4.53M110.02,86.13c-.32-.32-.69-.6-1.14-.86-.12-.07-.23-.15-.33-.23-.01-.01-.03-.03-.03-.05,0-.02.01-.04.02-.05.11-.11.21-.19.3-.25.09-.05.19-.09.28-.12.13-.04.25-.07.39-.1h.04c.27.49.46,1.18.47,1.67M139.94,45.11c-.02,2.09-.13,4.16-.31,6.13-.23,2.5-.6,4.92-1.11,7.21-.68,3.06-1.56,5.71-2.68,8.09-.3.65-.64,1.31-1,1.96-.97,1.71-2.33,3.2-4.07,4.41-1.05.73-2.27,1.21-3.71,1.45-1.88.32-3.77.18-5.63-.39-.13-.04-.26-.08-.4-.14.03-.07.08-.12.13-.17.02-.02.05-.05.07-.07.93-1.03,1.81-2.09,2.62-3.15,1.61-2.12,2.96-4.47,4.12-7.18,1.54-3.6,2.73-7.41,3.53-11.34.36-1.76.63-3.54.81-5.3.24-2.38.34-4.98.29-7.97,0-.1,0-.2,0-.3v-.12c2.49-1.55,4.86-3.14,6.87-4.49.03.12.04.25.04.38v.05c.1,1.78.2,3.56.29,5.35.11,2.07.16,3.9.14,5.6M142.3,34.24c-.4,0-.8-.02-1.19-.04-.33-.02-.67-.04-1.01-.04-.11-.36-.11-.82,0-1.11.06-.15.12-.3.18-.45.11-.27.23-.55.33-.82.06-.16.16-.24.32-.3,1.01-.34,2.01-.68,3.01-1.03l1.29-.44c.28-.1.56-.19.84-.29l.21-.07c-1.33,1.53-2.66,3.06-4,4.58"/>
          <path class="cls-4" d="M106.86,43.27c.04.12.1.24.17.34.08.12.12.25.1.4-.04.49.2.83.62,1.06.48.26.99.25,1.48.03.1-.05.21-.1.29-.14.21.06.39.13.57.18.39.1.78.1,1.11-.14.19-.13.37-.15.58-.1.1.03.21.03.31.03.53.03.99-.13,1.34-.54.05-.06.1-.11.15-.16.12,0,.24,0,.36,0,.36,0,.72,0,1.07-.03.72-.05,1.25-.42,1.62-1.02.06-.1.12-.19.18-.27.06-.01.1-.02.14-.02.86-.06,1.39-.54,1.68-1.31.11-.27.14-.57.15-.86,0-.11.01-.23.01-.32.14-.11.26-.21.37-.31.39-.37.54-.83.43-1.36-.04-.2-.12-.39-.19-.58-.05-.12-.11-.23-.17-.35.05-.14.12-.28.17-.43.11-.3.14-.6.06-.9-.13-.51-.46-.85-.98-.99-.51-.14-.96,0-1.31.42-.08.09-.15.18-.2.28-.08.17-.21.24-.38.29-.48.15-.83.44-.98.94-.02.09-.06.17-.13.23-.18.16-.36.32-.53.48-.35.04-.7.07-1.04.14-.19.04-.34.03-.5-.08-.25-.19-.54-.29-.85-.35-.85-.15-1.61.06-2.27.59-.6.48-1.06,1.07-1.37,1.78-.21.47-.3.97-.22,1.5.02.1.06.22-.01.34-.06-.03-.12-.06-.17-.09-.23-.13-.49-.16-.75-.13-.72.08-1.17.8-.93,1.47M117.6,35.97c.14-.13.31-.19.49-.2.41-.02.72.17.93.5.11.17.15.35.14.55,0,.22-.03.32-.17.52-.27-.19-.52-.42-.8-.58-.27-.16-.58-.25-.89-.38.03-.19.17-.3.3-.41M110.51,38.68c.54-.44,1.17-.61,1.87-.54.48.05.88.27,1.22.6.4.4.71.88.94,1.39.05.09.09.18.15.27h.1s.04-.04.04-.04c0-.06-.01-.13-.03-.19-.15-.45-.35-.88-.63-1.27-.06-.08-.11-.16-.16-.23.02-.11.1-.1.15-.12.36-.09.73-.08,1.07.02.38.1.69.35.9.69.12.2.21.43.3.65.06.17.13.23.19.19.1-.07.05-.15.03-.24-.14-.62-.47-1.13-1.02-1.47-.07-.04-.13-.09-.19-.13l-.02-.03c.03-.15.14-.2.28-.23.65-.12,1.25-.05,1.76.42.1.09.19.17.3.25h.13s.03-.09.03-.13l-.02-.03c-.39-.45-.85-.78-1.46-.85-.16-.02-.31,0-.46-.07.02-.25.14-.44.33-.59.25-.2.53-.3.86-.26.78.08,1.38.45,1.73,1.16.05.09.11.18.15.27.06.14.13.28.18.43.15.53.03.98-.41,1.33-.13.1-.32.16-.37.32-.03.14.02.3.01.45-.01.23-.03.46-.08.68-.11.5-.43.83-.9,1.03-.23.09-.46.16-.72.16-.13,0-.21.06-.27.16-.07.12-.14.24-.22.36-.29.44-.71.69-1.24.75-.46.06-.92.04-1.39,0-.03,0-.06-.03-.12-.06.05-.1.09-.18.13-.27.68-1.27.53-2.81-.4-3.91-.27-.32-.58-.58-.96-.76-.62-.27-1.24-.33-1.86,0-.03.02-.07.02-.14.04.06-.11.14-.17.22-.24M110.68,41.39h0s0,0,0,0M111.59,43.09c.16.19.27.41.39.62.04.07.06.17.12.23.03.03.12.06.16.05.05-.02.09-.09.1-.14.01-.04,0-.1-.02-.15-.15-.37-.34-.72-.64-.98-.12-.11-.27-.21-.42-.27-.13-.06-.2-.14-.24-.27-.1-.32-.16-.64-.09-.98.01-.08.03-.15.05-.22.27-.69.79-1,1.56-.81.28.06.52.21.75.37.07.05.14.13.17.2.38,1.04.29,2.03-.37,2.94-.23.32-.57.51-.94.63-.16.05-.32.1-.42.25-.08-.02-.14-.03-.2-.05-.13-.05-.25-.02-.36.07l-.09.06c-.28.21-.6.27-.95.17-.12-.03-.24-.08-.38-.12.07-.25.17-.47.13-.72-.04-.24-.14-.46-.28-.65.43-.71,1.43-.81,1.94-.21M109.07,43.27s.03.02.04.03c.2.15.36.35.45.59.07.25.01.47-.17.67-.39.42-1.17.47-1.62.12-.28-.22-.36-.52-.24-.85.04-.11.1-.21.17-.3.15-.19.35-.3.58-.34.3-.05.54-.08.8.09M108.12,42.16c.31.06.52.25.59.58-.29.07-.54.12-.79.19-.25.07-.42.28-.61.47-.22-.31-.23-.61-.03-.91.17-.27.52-.4.84-.32"/>
          <path class="cls-4" d="M90.33,40.53c0,.1.02.2.04.3.07.44.2.84.45,1.21.26.38.58.68,1.04.82.18.05.32.14.43.29.22.27.47.51.75.7.56.38,1.17.52,1.83.35.07-.02.13-.02.19-.03.05.04.11.08.16.12.05.04.1.08.14.13.53.43,1.12.6,1.79.56.05,0,.1,0,.16-.01.22-.03.43-.01.64.06.39.14.79.13,1.17-.02.11-.04.22-.09.33-.04.26.12.44-.03.61-.2.05-.06.08-.12.13-.19.1.03.19.05.27.08.38.12.76.09,1.14-.02.29-.08.43-.25.47-.63.03-.26-.11-.45-.41-.58-.1-.05-.21-.08-.35-.13-.03-.17-.06-.34-.08-.52-.06-.44-.3-.75-.71-.94-.09-.04-.18-.09-.26-.13,0-.27.01-.51,0-.75-.09-1.44-.88-2.41-2.16-3.01-.43-.2-.89-.24-1.36-.14-.33.07-.64.18-.95.32-.17.08-.33.11-.52.04-.37-.13-.75-.16-1.14-.12-.09,0-.18,0-.28,0-.14-.24-.28-.48-.52-.63-.01-.05-.02-.09-.03-.13-.03-.42-.21-.73-.63-.88-.11-.04-.16-.12-.2-.21-.12-.21-.27-.41-.46-.57-.22-.19-.48-.29-.77-.27-.47.02-.84.23-1.11.61-.23.32-.34.69-.31,1.08.03.44,0,.86-.11,1.29-.17.67-.04,1.29.44,1.82.1.11.16.23.17.38M95.55,38.73c.05-.07.12-.14.2-.18.44-.25.91-.42,1.42-.44.24,0,.46.02.68.1.96.39,1.63,1.05,1.95,2.04.12.4.15.83.12,1.25l-.03.06c-.11-.02-.09-.11-.1-.18-.02-.39-.1-.76-.24-1.12-.12-.31-.3-.6-.55-.82-1.08-.98-2.51-.66-3.2.34-.39.56-.55,1.21-.48,1.89.08.77.43,1.44.87,2.05.1.14.21.17.29.09.07-.07.08-.15,0-.28-.04-.07-.1-.15-.14-.22-.15-.24-.3-.48-.4-.76.1-.2.22-.36.5-.36-.01.13-.03.24-.03.35,0,.08.05.14.13.16.07.02.16-.03.18-.1.02-.08.04-.17.06-.26.09-.29.22-.4.52-.41h.08c.21.06.35-.01.47-.22.18-.3.48-.46.84-.46.27,0,.5.09.68.3.04.05.08.1.12.15.08.1.08.09.32.08.05.07.08.15.14.21.06.05.14.05.21.08.09.04.19.08.28.12.22.12.36.3.4.54.03.16.05.33.08.49.01.08.01.15.03.23.02.11.09.18.21.2.12.03.25.06.37.1.1.03.17.11.16.23,0,.13-.04.26-.18.31-.25.08-.5.14-.76.08-.17-.04-.34-.11-.51-.16-.11-.02-.23-.05-.34-.05-.12,0-.17.08-.16.21,0,.04.02.07.02.11,0,.09-.05.16-.13.15-.12-.01-.23-.04-.35-.05-.14-.02-.27-.02-.39.1-.15.15-.36.13-.55.1-.16-.02-.32-.08-.48-.14-.14-.05-.27-.06-.41-.04-.23.03-.46.05-.69.03-.46-.02-.87-.21-1.22-.51-.04-.03-.08-.07-.09-.12-.05-.23-.21-.38-.32-.57-.08-.14-.17-.29-.24-.43-.5-.95-.52-1.93-.15-2.93.18-.5.47-.94.79-1.35M97.53,41.54s-.08.03-.13.04c-.24.01-.44.09-.65.18-.2.08-.43.09-.63.15-.11.03-.2.11-.3.17-.14-.3-.17-.73-.1-1.16.09-.47.28-.86.61-1.19.62.27.98.71,1.08,1.36.02.15.07.29.12.46M90.09,38.22c.09-.34.12-.67.1-1.02,0-.18-.02-.36.02-.54.09-.46.34-.78.81-.93.3-.1.56-.03.78.17.08.07.14.15.19.21-.03.11-.11.08-.16.09-.18.05-.38.08-.55.15-.3.12-.5.34-.62.67.14.01.18-.06.24-.12.21-.19.46-.32.75-.36.17-.02.33-.04.49.06.09.06.22.06.33.1.3.09.49.26.48.63-.09.02-.19.04-.28.06-.68.11-1.14.49-1.47,1.06-.03.04-.06.09-.07.13,0,.05,0,.09.01.14.04,0,.1,0,.13-.04.05-.05.08-.13.13-.19.11-.13.21-.27.32-.39.33-.34.76-.45,1.23-.43.27.01.4.14.54.5-.34.25-.63.55-.76.97-.03.12-.1.24-.03.39.05-.04.09-.06.12-.1.06-.09.09-.18.15-.27.11-.15.23-.31.36-.45.19-.19.43-.32.71-.34.34-.03.67-.03.99.06.07.01.12.05.19.08-.08.13-.16.25-.23.36-.38.56-.66,1.15-.78,1.82-.15.85-.03,1.65.36,2.42.11.21.23.42.37.67-.42.19-.81.16-1.2.03-.31-.1-.58-.28-.81-.5-.16-.15-.3-.31-.45-.48-.12-.14-.25-.23-.44-.29-.69-.21-1.1-.69-1.28-1.36-.07-.26-.09-.53-.11-.8,0-.19-.05-.32-.21-.45-.32-.25-.49-.59-.47-1,.01-.24.05-.49.11-.72"/>
          <path class="cls-4" d="M103.94,40.51c-.31-.33-.67-.6-1.07-.8-.35-.18-.72-.35-1.07-.53-.07-.03-.14-.06-.21-.08-.12-.03-.24.06-.24.18,0,.1.03.2.07.29.21.48.45.94.73,1.39.44.67,1.04,1.12,1.82,1.34.13.03.24.08.36.11.1.44.05.85-.03,1.27-.02.1-.06.2-.06.3,0,.07.02.17.08.2.27.19.56.37.84.54.1.06.21,0,.26-.1.03-.07.05-.14.06-.22.03-.21.05-.43.07-.65.02-.39.05-.79-.02-1.18-.05-.23-.07-.47-.09-.71.13-.07.24-.13.35-.19.39-.21.75-.45,1.04-.79.58-.65.91-1.44,1.13-2.27v-.03c.03-.18-.05-.29-.23-.26-.17.03-.34.09-.52.13-.12.03-.23.13-.36.1v-.06s.06-.09.06-.09c.27-.37.42-.79.48-1.24.14-.98-.02-1.88-.78-2.61-.04-.04-.08-.09-.12-.15.14-.17.27-.34.38-.51.09-.12.01-.27-.15-.26-.19,0-.38.03-.57.05-.16.01-.33.07-.49.01-.03-.05-.05-.08-.07-.11-.2-.37-.21-.38-.58-.2-.25.11-.46.14-.68-.02-.12-.09-.25-.12-.4-.1-.14.02-.18.13-.25.22-.08.09-.17.11-.28.07-.11-.05-.21-.1-.32-.14-.09-.04-.19-.08-.28-.1-.14-.03-.25.1-.22.24.02.08.05.15.08.22.04.13.08.27.04.43-.07.06-.15.11-.24.17-.51.33-.83.79-.99,1.37-.06.23-.11.48-.12.71-.06,1.23.38,2.2,1.51,2.79.24.13.49.22.74.32.1.04.18.09.23.19.13.29.27.58.33.92-.06-.01-.08-.01-.09-.02-.04-.04-.09-.08-.14-.13M105.24,33.69c.07.11.12.18.17.28.07.11.17.15.3.13.18-.02.35-.05.53-.07.05.15-.07.2-.11.28-.06.12-.06.19.03.28.05.06.11.1.17.16.53.48.77,1.07.78,1.77,0,.35-.03.69-.14,1.02-.31.93-.98,1.43-1.92,1.62-.02,0-.04-.01-.09-.03.06-.1.12-.19.18-.28.26-.36.47-.73.64-1.13.2-.48.3-.97.29-1.49-.01-.5-.13-.96-.41-1.37-.17-.25-.37-.49-.57-.73-.06-.08-.13-.15-.24-.27.17-.06.28-.11.41-.16M105.67,39.41c-.22.24-.41.44-.45.74-.1-.19-.21-.38-.33-.59.23-.06.43-.12.64-.17.02,0,.05,0,.13.02M104,33.98c-.61.31-.97.82-1.13,1.47-.14.62-.11,1.24.04,1.86.13.55.37,1.06.64,1.55.05.09.09.18.13.27v.03s-.04.02-.04.02c-1.39-.45-1.9-1.32-1.95-2.42-.01-.39.04-.76.18-1.12.15-.41.4-.74.77-.98.05-.04.1-.07.16-.1.24-.13.37-.32.28-.6v-.08l.03-.05s.08,0,.09.02c.29.18.53.12.76-.11l.11-.09c.12.04.24.05.28.19-.12.05-.24.09-.35.15M104.33,40c-.05-.12-.1-.24-.14-.34.05-.08.09-.05.14-.02.39.2.57.53.58.96,0,.12.01.23.03.35,0,.08.06.14.15.15.07,0,.16-.02.2-.06.06-.04.1-.12.12-.19.08-.24.16-.48.23-.73.03-.1.06-.19.13-.27.46-.5.99-.89,1.65-1.09.03-.01.07,0,.13-.01,0,.06,0,.1-.02.15-.13.51-.33.99-.61,1.44-.33.53-.78.9-1.37,1.13-.14.05-.29.11-.41.16-.1.23-.06.43-.02.63.1.56.1,1.12.06,1.68,0,.11.01.23-.09.32-.17-.06-.31-.17-.46-.28.02-.12.03-.22.05-.34.09-.38.07-.76.05-1.14-.02-.27-.11-.36-.39-.44-.16-.04-.3-.07-.45-.11-.55-.14-.98-.44-1.27-.93-.23-.39-.45-.78-.66-1.16-.03-.05-.04-.11-.06-.16.06-.07.11-.03.15,0,.22.11.44.21.66.32.7.36,1.24.9,1.62,1.59l.04.06s.09.07.13.06c.05-.02.13-.06.14-.11.02-.1.03-.2.02-.3-.03-.45-.14-.88-.3-1.3"/>
          <path class="cls-4" d="M100.32,51.99c.1.04.2.05.3.05.07,0,.14.04.22.07-.03.16-.05.3-.09.43-.18.84-.27,1.69-.32,2.55-.01.23.08.38.29.49.5.24,1,.45,1.55.52.12.02.25.05.38.08-.01.12-.01.23-.02.32-.06.36-.11.72-.17,1.08-.02.14-.01.25.08.36.36.44.71.9,1.07,1.34.19.23.43.24.61-.03.25-.38.53-.74.79-1.11.29-.41.29-.32.21-.79v-.03c-.02-.1-.04-.2-.04-.3,0-.1-.05-.2,0-.3.36-.02.71-.05,1.08-.07.21.28.42.55.61.82.12.16.25.25.45.27.22.03.43.08.66.1.41.03.8-.06,1.18-.23.14-.06.23-.17.31-.29.06-.08.05-.17-.03-.25-.05-.05-.12-.1-.18-.14-.18-.13-.36-.26-.55-.38-.4-.25-.58-.61-.55-1.08.01-.3.02-.6.03-.89.02-.46,0-.91-.08-1.36-.19-1.13-.47-2.23-.75-3.34-.07-.26-.17-.52-.29-.76-.26-.57-.71-.92-1.32-1.06-.55-.14-1.12-.12-1.67-.04-.7.1-1.34.35-1.95.68-.58.32-1.12.71-1.67,1.09-.23.16-.33.35-.33.62-.01.41-.02.83-.05,1.24,0,.17.06.27.22.33M102.71,55.87c-.37.05-1.53-.42-1.74-.63.1-.03.21-.05.31-.08,0,0,0,0,0,0,.06.14,1.23.5,1.46.45-.02.09-.02.2-.03.25M103.79,58.91c-.28-.34-.55-.69-.83-1.03-.09-.11-.13-.22-.1-.36.17-.83.22-1.67.19-2.51,0-.03.02-.07.04-.15.27-.02.53-.03.79-.03,0,.68,0,3.29,0,4.17-.03-.03-.06-.05-.09-.08M105.13,56.3s-.05-.14-.06-.2c.29.1.72.08.95-.06.02.05.04.12.07.19-.27.18-.75.18-.96.06M100.5,50.28c.05-.06.1-.12.16-.16.57-.44,1.16-.84,1.8-1.18.64-.34,1.33-.55,2.05-.62.4-.04.81-.02,1.21.06.47.09.82.34,1.02.77.13.28.25.57.32.87.24,1,.46,1.99.67,3,.14.64.16,1.28.11,1.94-.02.27-.02.54,0,.82.02.41.22.74.56.98.17.12.35.24.51.36.05.03.09.08.16.14-.21.14-.42.2-.64.22-.33.03-.65.01-.98-.07-.12-.03-.21-.08-.29-.18-.41-.48-.72-1.02-.9-1.62-.03-.09-.04-.18-.03-.27.01-.17-.07-.28-.21-.35-.24-.12-.46-.24-.71-.33-.62-.21-1.25-.24-1.9-.19-.76.06-1.5.18-2.24.35-.1.02-.2.03-.32.05,0-.1-.01-.18-.01-.25.06-.85.18-1.68.4-2.5.05-.18.06-.23-.02-.29.48-.01.97-.66,1.39-.92.76-.47,1.63-.77,2.52-.73.16,0,.34.04.5.08.19.14.37.31.53.52.3.4.48.86.63,1.33.18.6.26,1.21.31,1.84,0,.08.01.15.06.23l.04-.11c.08-.83.01-1.66-.24-2.46-.09-.31-.23-.61-.41-.88-.59-.91-1.49-1.35-2.66-1.18-.59.09-1.13.31-1.64.62-.51.3-.96.67-1.39,1.07-.09.09-.18.17-.34.32v-1.29Z"/>
          <path class="cls-4" d="M107.22,64.5h.22l-.03-.1c-.04-.17-.07-.34-.07-.53,0-.17.03-.36.07-.52l.03-.1h-1.49v-.1s.72,0,.72,0l-.02-.1c-.06-.16-.07-.26-.07-.45s.03-.35.09-.53l.02-.09h-.87l.94-.09-.93-.32-.09.4h-.73v.06c-.06.19-.1.37-.1.57s.02.31.07.49v.06h.49l.02.1h-1.08l-.02-.1h.57l-.03-.1c-.05-.16-.06-.26-.06-.44s.03-.35.08-.53l.03-.09h-.71l.94-.09-.91-.32-.11.4h-.88l-.02.06c-.06.19-.08.37-.08.57s0,.3.05.49l.02.06h.64v.1s-1.6,0-1.6,0v.06c-.08.17-.1.36-.1.56,0,.08,0,.18.02.26h-1.63l.34.83h.43l.53.72h5.34l1.06-1.04h-.98l-.1-.14ZM102.81,64.7l-.21-.2h.25l-.05.2ZM103.47,64.7h-.42l.04-.2h.41l-.04.2ZM103.63,64.11h-1.01c-.02-.06-.05-.2-.05-.34s.03-.27.05-.32h1.01c-.02.06-.04.18-.04.32s.02.26.04.34M103.57,62.84c-.02-.06-.04-.18-.04-.32,0-.15.02-.27.04-.33h1.01c-.02.08-.04.18-.04.33,0,.14.02.25.04.32h-1.01ZM104.32,64.7h-.32l.04-.2h.31l-.02.2ZM105.22,64.7h-.38l.04-.2h.37l-.03.2ZM105.33,64.05s0,.03.01.06h-1.02c-.01-.06-.03-.18-.04-.29v-.18c.03-.1.04-.17.05-.18h1.01c-.02.06-.04.18-.04.32,0,.09,0,.18.03.27M106.02,63.46h1.01c-.02.06-.04.18-.04.32s.02.26.04.34h-1.01c-.02-.06-.05-.2-.04-.34,0-.14.03-.27.04-.32M105.26,62.84c-.02-.06-.04-.18-.04-.32,0-.15.02-.27.04-.33h1.01c-.01.08-.03.18-.03.33,0,.14.02.25.03.32h-1.01ZM106.07,64.7h-.35l.05-.2h.34l-.04.2ZM106.6,64.7l.03-.2h.37l.12.2h-.52Z"/>
          <path class="cls-4" d="M106.67,72.16c-.04-.16-.06-.31-.06-.46,0-.14.02-.31.06-.45l.04-.2h-.49v-.52h-.6v.52h-.67v-.52h-.6v.52h-.68v-.52h-.6v.52h-.34l-.03.13c-.05.17-.07.33-.07.49l-.58.57h-.95l.58.97.82.51h3.9l.99-.63.22-.84h-.93l-.02-.08ZM103.66,71.99h-.54c0-.05-.01-.29-.01-.37,0-.07,0-.14.02-.18h.54c0,.05-.02.11-.02.18s0,.31.02.37M104.91,71.99h-.54c0-.05,0-.29,0-.37,0-.07,0-.14.02-.18h.53c0,.05,0,.11,0,.18s0,.31,0,.37M106.16,71.99h-.53c0-.05-.01-.29-.01-.37,0-.07,0-.14.01-.18h.53c-.01.05-.01.11-.01.18s0,.31.01.37"/>
          <path class="cls-4" d="M86.48,29.42c-.02-.07-.05-.14-.08-.21-.32.11-.63.22-.94.34-.21-.52-.42-1.04-.64-1.56-.09.03-.18.07-.26.1.25.58.5,1.17.74,1.76.39-.15.78-.3,1.18-.43"/>
          <path class="cls-4" d="M87.04,29.24c-.2-.61-.4-1.21-.62-1.81-.09.03-.18.06-.27.09.22.6.43,1.2.64,1.8.08-.03.17-.06.25-.08"/>
          <path class="cls-4" d="M88.25,28.89c.25-.06.42-.18.5-.35.06-.12.07-.23.04-.35-.04-.14-.11-.24-.22-.3-.06-.03-.15-.06-.26-.07.06-.05.1-.1.13-.15.05-.09.06-.2.03-.31-.02-.1-.08-.18-.16-.24-.14-.1-.33-.12-.57-.06-.29.08-.58.16-.88.25.2.6.4,1.21.59,1.82.26-.08.53-.15.8-.23M87.2,27.42c.16-.05.33-.09.49-.13.12-.03.21-.05.28-.04.12.02.2.08.23.2.03.12,0,.22-.08.29-.06.05-.14.08-.25.11-.16.04-.33.09-.49.13-.06-.19-.12-.38-.18-.56M87.97,28.04c.11-.03.21-.04.28-.03.14.02.23.09.27.23.02.08.02.15-.01.22-.05.11-.15.18-.31.22-.19.05-.38.1-.56.16-.06-.22-.13-.43-.2-.64.18-.05.35-.1.53-.15"/>
          <path class="cls-4" d="M90.7,28.37c-.01-.08-.03-.15-.04-.22-.4.06-.8.14-1.2.22-.05-.21-.1-.42-.14-.63.37-.08.74-.15,1.12-.21-.01-.07-.03-.14-.04-.22-.38.06-.75.13-1.13.21-.05-.19-.09-.38-.14-.56.41-.09.83-.17,1.24-.23-.02-.08-.03-.15-.05-.23-.51.09-1.02.18-1.53.29.16.62.31,1.24.46,1.86.48-.1.96-.2,1.44-.28"/>
          <path class="cls-4" d="M117.82,26.87c.02-.21-.06-.36-.25-.46-.1-.05-.23-.07-.38-.08-.32-.02-.64-.03-.96-.03-.02.62-.04,1.23-.05,1.85.09,0,.17,0,.26,0,.01-.27.02-.53.03-.79.2,0,.41.01.61.02.11,0,.19.02.24.05.09.05.13.13.12.25,0,.1,0,.21,0,.31,0,.07,0,.12,0,.15l.02.06c.1,0,.21.01.32.02v-.04s-.06-.06-.07-.12c0-.03,0-.09,0-.16,0-.08.01-.17.01-.25,0-.11,0-.19-.04-.24-.03-.05-.09-.09-.16-.13.09-.04.16-.09.22-.16.06-.06.09-.15.1-.26M117.41,27.12c-.08.04-.18.06-.31.05-.21-.01-.42-.02-.62-.02,0-.21.02-.42.02-.63.23,0,.45.02.68.03.09,0,.17.02.22.05.1.06.15.15.14.28-.01.12-.06.2-.13.25"/>
          <path class="cls-4" d="M119.11,26.51c-.28-.04-.55-.07-.83-.1-.07.61-.14,1.23-.2,1.84.26.02.51.06.77.09.33.04.57-.06.75-.31.1-.14.17-.31.21-.51.05-.25.02-.46-.09-.65-.12-.2-.32-.32-.6-.36M119.53,27.52c0,.06-.03.12-.05.19-.04.11-.09.2-.15.27-.08.08-.17.13-.28.15-.06.01-.13,0-.22,0-.15-.02-.31-.04-.46-.05.05-.47.11-.94.17-1.41.16.02.33.04.49.06.22.03.37.11.45.25.08.14.1.32.06.55"/>
          <path class="cls-4" d="M120.57,26.97c.4.08.79.16,1.18.26.02-.07.04-.15.06-.22-.48-.12-.97-.22-1.46-.31-.12.6-.24,1.21-.35,1.81.46.08.92.18,1.37.29.02-.07.03-.14.05-.21-.38-.09-.76-.17-1.14-.25.04-.21.08-.41.12-.62.36.07.71.14,1.06.23.02-.07.03-.14.05-.21-.36-.09-.71-.16-1.07-.23.04-.18.08-.37.11-.55"/>
          <path class="cls-4" d="M123.02,28.9c-.15-.57-.32-1.14-.52-1.71-.11-.03-.21-.06-.32-.09-.17.6-.33,1.19-.49,1.79.08.02.16.04.24.06.13-.48.27-.96.41-1.44.2.57.37,1.14.53,1.71.09.03.18.06.27.09.2-.58.4-1.17.6-1.75-.08-.03-.17-.05-.25-.08-.16.47-.32.95-.47,1.42"/>
          <path class="cls-4" d="M112.61,26.49c-.17.32-.33.64-.48.96-.23-.26-.47-.53-.72-.79-.11.02-.22.04-.33.06.32.31.64.64.94.96.04.24.07.49.11.74.09-.01.17-.03.26-.04-.03-.25-.07-.49-.1-.74.2-.4.42-.8.65-1.19-.11.01-.22.02-.33.04"/>
          <path class="cls-4" d="M114.84,26.26c-.35.01-.62.14-.78.38-.13.19-.18.41-.17.65.02.28.12.5.28.67.18.18.42.26.72.24.32-.01.56-.12.73-.34.15-.18.23-.41.23-.69,0-.25-.06-.46-.19-.63-.17-.21-.45-.31-.81-.3M115.41,27.74c-.1.16-.27.24-.5.25-.24,0-.42-.05-.54-.18-.12-.13-.18-.3-.19-.51-.01-.25.04-.45.17-.59.13-.14.3-.21.52-.22.22-.01.39.05.52.18.13.13.19.31.19.52,0,.21-.05.39-.16.55"/>
          <path class="cls-4" d="M92.75,28.08s-.08-.05-.1-.11c-.01-.03-.02-.09-.03-.16-.01-.08-.03-.17-.04-.25-.01-.11-.05-.19-.09-.23-.05-.04-.11-.08-.2-.1.09-.05.15-.12.2-.19.04-.08.06-.17.04-.29-.02-.21-.14-.36-.35-.42-.11-.03-.25-.04-.41-.02-.33.04-.66.08-.99.13.12.62.22,1.25.32,1.88.09-.01.18-.02.27-.04-.04-.27-.08-.54-.12-.81.21-.03.42-.05.63-.08.11-.01.2,0,.26,0,.1.03.16.12.18.24.02.11.04.21.06.32.01.07.02.12.03.15l.03.06c.11,0,.22-.02.33-.03v-.04ZM92.15,27.07c-.07.06-.17.09-.31.11-.22.02-.43.05-.65.08-.03-.22-.07-.43-.11-.65.23-.03.47-.06.7-.09.1-.01.18,0,.24.01.12.04.18.13.2.26.02.13-.01.22-.08.27"/>
          <path class="cls-4" d="M93.4,26.39c.05.56.09,1.12.13,1.68.09,0,.19,0,.28-.01-.03-.56-.07-1.12-.11-1.68.24-.01.49-.02.73-.02,0-.08,0-.15-.01-.23-.59.01-1.18.04-1.76.09,0,.08.02.15.02.23.24-.02.48-.03.72-.05"/>
          <path class="cls-4" d="M94.65,28.04c.07-.19.14-.38.21-.57.28,0,.55,0,.83.01.07.19.14.39.2.58.1,0,.2,0,.31.01-.23-.65-.49-1.29-.76-1.94-.11,0-.22,0-.33,0-.26.63-.5,1.27-.73,1.91.09,0,.19,0,.28,0M95.26,26.41c.12.28.23.57.33.85-.22,0-.44,0-.66,0,.11-.28.22-.56.33-.84"/>
          <path class="cls-4" d="M98.09,27.8c.1-.16.16-.33.18-.54.03-.26-.03-.49-.17-.67-.16-.2-.39-.32-.69-.35-.3-.03-.6-.05-.9-.06-.01.64-.03,1.28-.05,1.91.28.02.55.04.83.06.36.03.62-.08.79-.35M96.75,27.88c.02-.49.05-.98.06-1.47.18.01.35.03.53.04.24.02.41.1.51.25.1.14.14.33.12.57,0,.06-.02.13-.04.2-.03.12-.08.21-.14.28-.08.09-.17.14-.29.17-.06.01-.14.01-.23,0-.17-.01-.34-.03-.51-.04"/>
          <path class="cls-4" d="M93.36,10.96c-.15-.18-.16-.49-.06-.69.03-.06.07-.12.12-.17.04-.04.12-.07.15-.11-.19.22-.61.13-.73-.13-.12-.27.05-.61.32-.71-.23.04-.43.16-.64.24-.22.08-.48.1-.65-.05-.17-.14-.2-.41-.12-.62.08-.21.24-.38.39-.54-.35.08-.67.43-1.02.32-.35-.12-.38-.62-.2-.93.18-.31.51-.53.71-.83-.53.25-1.09.45-1.67.58-.2.05-.44.08-.6-.05-.11-.09-.1-.29-.01-.39l-.81.27c-.19.06-.39.12-.58.07-.19-.06-.34-.29-.23-.45-.29.17-.6.36-.94.32-.2-.02-.35-.11-.45-.29-.12-.21-.03-.31.15-.45-.32.13-.64.53-.54.89.07.27.39.41.66.38.28-.02.53-.17.76-.32,0,.24.18.42.41.51-.58.49-1.07,1.1-1.4,1.78-.09.19-.18.4-.18.61,0,.21.09.44.28.54.19.1.47.03.54-.17-.07.22.01.48.2.62.18.14.46.16.66.03-.03.26-.03.54.09.77.13.23.41.4.66.32-.38.12.96,1.43.81.46-.05-.34-.31-.51-.27-.91.04-.38.26-.73.45-1.06.22-.38.44-.76.67-1.13-.6.73-1.1,1.53-1.51,2.38-.38-.54-.1-1.28.22-1.86.29-.53.61-1.05.95-1.55-.82.5-1.09,1.55-1.7,2.29-.09.11-.23.22-.35.16-.03-1.01.32-2.03.98-2.8-.54.45-.97,1.02-1.4,1.58-.14.18-.31.38-.55.41-.17-.47.05-.99.32-1.41.23-.34.49-.66.67-1.02.06.01.12.02.18.02.35-.01.66-.2.96-.39,0,.18.25.23.43.22.36,0,.72-.02,1.07-.03-.25.23-.32.64-.16.93.16.3.55.46.88.37-.28.31-.05.86.34.98.34.1.71-.06.94-.33-.03.04-.06.09-.09.14-.03.05-.05.1-.07.15-.04.11-.06.22-.04.34.02.1.06.2.11.28.05.08.12.14.21.18.04.02.09.03.13.03.11,0,.2-.05.29-.11-.06.1-.12.2-.18.31-.05.11-.1.22-.11.34-.04.28.2.52.46.55.15.02.31,0,.44-.08.3-.17.47-.51.61-.82-.23.31-.76.32-1,.03"/>
          <path class="cls-4" d="M120.44,4.73s.06-.01.09-.03c.12-.05.22-.14.24-.27.01-.1-.03-.19-.08-.28-.07-.11-.16-.2-.26-.27-.08-.03-.16-.06-.24-.09,0,0-.09,0-.31-.09.1.06.19.13.24.24s.01.24-.09.3c-.08.05-.19.03-.29.01-.23-.05-.45-.09-.68-.14.27.23.58.41.91.54.15.05.31.1.46.07"/>
          <path class="cls-4" d="M116.09,11.76c.05.12.09.24.12.37-.02-.15-.04-.29-.06-.44-.02.03-.04.05-.06.07"/>
          <polyline class="cls-4" points="115.2 11.75 115.2 11.75 115.2 11.75 115.2 11.75"/>
          <path class="cls-4" d="M74.5,12.94c.49-.17,1.06.05,1.55-.14.34-.13.57-.43.79-.72.41-.55.82-1.1,1.23-1.64-.58.56-1.23,1.05-1.92,1.46-.17.1-.36.2-.56.19-.2-.02-.4-.21-.34-.4.02-.09.09-.15.16-.21l.57-.54c-1.6,1.06-3.09,2.36-4.49,3.67-.73.68-2.22,1.86-2.2,2.99.68-.19,1.46-1.27,1.98-1.76.86-.81,1.72-1.62,2.58-2.43.2-.19.41-.38.66-.47"/>
          <path class="cls-4" d="M78.47,9.56c.21,0,.41.1.62.16.54.16,1.14.01,1.63-.28.49-.29.88-.71,1.27-1.12-.47.31-.97.58-1.48.8-.17.07-.35.14-.53.12s-.37-.12-.41-.3c-.03-.13.02-.27.08-.38.16-.3.42-.55.73-.69-.84.39-3.21,1.37-3.34,2.38.31-.03.62-.32.9-.49.16-.1.33-.19.52-.2"/>
          <path class="cls-4" d="M76.55,16.56c.05-.11.12-.21.2-.3-.06.07-.17.13-.25.18-.09.05-.17.1-.27.15-.27.13-.56.22-.86.25-.14.02-.29,0-.43.02-.16,0-.32,0-.46-.07-.15-.08-.18-.25-.15-.41,0-.04.02-.07.03-.11.07-.18.18-.34.33-.47-.53.35-1.13.61-1.75.74-.1.02-.2.03-.28-.02-.18-.11-.09-.38.02-.55.51-.8,1.13-1.49,1.83-2.13-.75.49-1.43,1.09-2.03,1.74-.25.27-.5.63-.38.98.1.31.46.46.79.44.32-.02.62-.18.9-.34.15-.08.3-.17.44-.25-.1.22-.16.47-.15.71,0,.19.11.38.3.44.13.05.28.02.42-.01.66-.16,1.27-.49,1.76-.96,0,0,0-.02.01-.03"/>
          <path class="cls-4" d="M76.5,16.76s0-.04,0-.06c-.1.2-.16.43-.06.63.11.21.37.31.61.28.24-.03.45-.15.64-.29.57-.41,1.04-.97,1.33-1.61-.63.46-1.32.84-2.04,1.13-.17.07-.44.09-.48-.09"/>
          <path class="cls-4" d="M77.58,15.4c.45-.39,1.06-.8,1.4-1.26-.61-.18-1.44.73-1.84,1.11-.18.18-.37.39-.35.64.3-.08.55-.28.79-.49"/>
          <path class="cls-4" d="M81.02,14.92c-.1-.7-1.45.65-1.61.81-.14.14-.29.33-.21.51.33-.09,1.87-.93,1.81-1.32"/>
          <path class="cls-4" d="M116.09,11.76c.05.12.09.24.12.37-.02-.15-.04-.29-.06-.44-.02.03-.04.05-.06.07"/>
          <polyline class="cls-4" points="115.2 11.75 115.2 11.75 115.2 11.75 115.2 11.75"/>
          <path class="cls-4" d="M82.81,6.62c.09.06.21.06.32.04.23-.04.51-.1.68-.25-.26-.29-.15-.57.1-.83.55-.56,1.22-1,1.95-1.28-.1.05-.23-.06-.23-.18,0-.12.07-.22.14-.31.51-.62,1.23-1.06,2.02-1.23.02,0,.11.06.14.07.06.02.11.04.17.05.11.02.23.02.35,0,.18-.03.51-.14.59-.33-.03-.02-.08-.05-.08-.09-.01-.07.04-.12.09-.17.14-.15.31-.27.46-.41.02-.02.05-.05.04-.08,0-.03-.4.14-.43.16-.06.03-.66.28-.8.33-.55.21-1.12.37-1.68.59-.54.21-1.06.48-1.48.88-.1.1-.2.21-.23.35-.03.14.04.31.17.34-.92.29-1.73.91-2.25,1.72-.12.19-.21.49-.02.62"/>
          <path class="cls-4" d="M81.3,10.74c.22-.06.42-.19.62-.31.05-.03.12-.06.17-.03.05.03.05.1.05.16.03.27.3.47.57.49.27.02.54-.1.77-.25,0,.05-.02.1-.02.15.11.18.33.26.54.27.21,0,.42-.06.62-.12.26-.08.54-.17.68-.4-.13.13-.29.27-.47.24-.2-.03-.32-.27-.29-.47.03-.2.16-.37.3-.53-.35.21-.73.38-1.13.49-.16.05-.34.08-.5.04-.16-.04-.31-.19-.3-.36,0-.09.06-.18.13-.25.1-.11.22-.2.35-.26-.32.13-.65.26-.97.39-.24.1-.49.2-.75.18-.26-.02-.53-.19-.56-.45-.01-.1.01-.2.06-.3-.04.03-.09.05-.13.09-.16.13-.32.27-.41.46s-.09.43.04.59c.14.18.41.21.64.16"/>
          <path class="cls-4" d="M88.01,3.31c.05-.16.17-.29.3-.39-.37.12-.68.4-.84.76-.02.05-.04.12,0,.16.02.02.05.03.09.04.28.05.58.04.86-.02-.1,0-.21-.02-.29-.09-.13-.11-.16-.3-.12-.46"/>
          <path class="cls-4" d="M133.5,12.17c-.2.02-.39-.08-.56-.19-.69-.41-1.34-.91-1.92-1.46.41.55.82,1.1,1.23,1.64.22.29.45.59.79.72.49.19,1.06-.03,1.55.14.26.09.47.28.66.47.86.81,1.72,1.62,2.58,2.43.52.49,1.3,1.57,1.98,1.76.02-1.13-1.46-2.31-2.2-3-1.4-1.3-2.89-2.61-4.49-3.67.19.18.38.36.57.54.06.06.13.13.16.21.06.19-.14.38-.34.4"/>
          <path class="cls-4" d="M128.36,9.51c.49.29,1.09.44,1.63.28.21-.06.4-.17.62-.16.19,0,.36.1.52.2.29.17.6.46.9.49-.13-1.01-2.5-1.99-3.34-2.38.31.14.57.39.73.69.06.12.11.25.08.39-.05.17-.23.28-.41.29-.18.01-.36-.05-.53-.12-.52-.22-1.02-.48-1.48-.8.39.41.78.83,1.27,1.12"/>
          <path class="cls-4" d="M126.04,9.96c.06.07.12.15.13.25.02.17-.13.32-.29.36-.16.04-.34,0-.5-.04-.4-.11-.78-.28-1.13-.49.13.16.27.33.3.53.03.2-.09.44-.29.47-.18.03-.34-.11-.47-.24.14.23.42.32.67.4.2.06.41.12.62.12.27,0,.39-.11.52-.33.05-.09.07-.05.17,0,.18.1.39.17.6.15.27-.02.55-.22.58-.49,0-.06,0-.13.05-.16.05-.03.12,0,.17.03.2.12.39.25.62.31.22.06.49.02.64-.16.13-.16.13-.4.04-.59-.09-.19-.24-.34-.41-.46-.04-.03-.08-.06-.13-.09.04.1.07.2.05.3-.03.26-.3.43-.56.45-.26.02-.51-.08-.75-.18l-1.13-.46c.2.06.37.17.51.33"/>
          <path class="cls-4" d="M136.21,17.07c.32.02.69-.13.79-.44.12-.35-.13-.71-.38-.98-.6-.66-1.28-1.25-2.03-1.74.7.64,1.33,1.33,1.83,2.13.11.18.2.45.02.55-.08.05-.19.03-.28.02-.61-.13-1.2-.38-1.72-.72.11.08.18.2.25.31.05.08.1.17.15.26.16.09.32.18.48.27.28.16.58.32.9.34"/>
          <path class="cls-4" d="M131.64,13.23s-.07-.03-.1-.05c.11.01.22.02.33.02.09,0,.18,0,.25-.05.19-.12.12-.41,0-.61-.22-.37-.51-.66-.8-.96.2.22.48.63.24.85-.07.06-.17.08-.26.08-.51.03-1.01-.11-1.45-.36.1.16.08.44-.1.57-.25.18-.61.12-.91.03-.73-.22-1.44-.55-2.08-.97.4.25.76.57,1.06.93.08.1.16.22.16.35-.01.31-.45.38-.76.33-.77-.12-1.52-.35-2.22-.69.43.24.8.58,1.07.99.06.09.12.19.1.3-.04.24-.37.27-.61.22-.8-.15-1.58-.41-2.31-.78.07.43-.34.88-.78.84.22.14.52.17.76.06.12-.05.22-.13.35-.14.16-.01.3.1.43.19.6.41,1.36.58,2.08.44.18-.03.38-.1.46-.26.21-.39-.4-.71-.56-1.12.42.18.87.32,1.32.41.26.05.54.09.77-.02.24-.12.39-.43.23-.65.38.26.79.53,1.25.51.46-.02.92-.47.76-.9.31.18.66.29,1.01.36-.03,0-.06.02-.08.03.23-.19,2.23,2.23,2.91,2.04-.32-.89-1.74-1.56-2.53-2"/>
          <path class="cls-4" d="M130.1,14.21c.35.47.95.88,1.4,1.26.24.2.49.41.79.49.02-.25-.17-.47-.35-.64-.4-.38-1.24-1.29-1.84-1.11"/>
          <path class="cls-4" d="M128.06,15c-.05.38,1.49,1.23,1.81,1.32.09-.18-.06-.37-.21-.51-.16-.16-1.51-1.51-1.61-.81"/>
          <path class="cls-4" d="M121.53,3.95s.06-.01.09-.04c.04-.04.02-.11,0-.16-.16-.35-.47-.63-.84-.76.14.1.25.23.3.39s.01.35-.12.46c-.08.07-.18.09-.29.09.28.07.58.08.87.02"/>
          <polyline class="cls-4" points="115.2 11.75 115.2 11.75 115.2 11.75 115.2 11.75"/>
          <path class="cls-4" d="M81.3,10.74c.22-.06.42-.19.62-.31.05-.03.12-.06.17-.03.05.03.05.1.05.16.03.27.3.47.57.49.27.02.54-.1.77-.25,0,.05-.02.1-.02.15.11.18.33.26.54.27.21,0,.42-.06.62-.12.26-.08.54-.17.68-.4-.13.13-.29.27-.47.24-.2-.03-.32-.27-.29-.47.03-.2.16-.37.3-.53-.35.21-.73.38-1.13.49-.16.05-.34.08-.5.04-.16-.04-.31-.19-.3-.36,0-.09.06-.18.13-.25.1-.11.22-.2.35-.26-.32.13-.65.26-.97.39-.24.1-.49.2-.75.18-.26-.02-.53-.19-.56-.45-.01-.1.01-.2.06-.3-.04.03-.09.05-.13.09-.16.13-.32.27-.41.46s-.09.43.04.59c.14.18.41.21.64.16"/>
          <path class="cls-4" d="M88.01,3.31c.05-.16.17-.29.3-.39-.37.12-.68.4-.84.76-.02.05-.04.12,0,.16.02.02.05.03.09.04.28.05.58.04.86-.02-.1,0-.21-.02-.29-.09-.13-.11-.16-.3-.12-.46"/>
          <path class="cls-4" d="M82.81,6.62c.09.06.21.06.32.04.23-.04.51-.1.68-.25-.26-.29-.15-.57.1-.83.55-.56,1.22-1,1.95-1.28-.1.05-.23-.06-.23-.18,0-.12.07-.22.14-.31.51-.62,1.23-1.06,2.02-1.23.02,0,.11.06.14.07.06.02.11.04.17.05.11.02.23.02.35,0,.18-.03.51-.14.59-.33-.03-.02-.08-.05-.08-.09-.01-.07.04-.12.09-.17.14-.15.31-.27.46-.41.02-.02.05-.05.04-.08,0-.03-.4.14-.43.16-.06.03-.66.28-.8.33-.55.21-1.12.37-1.68.59-.54.21-1.06.48-1.48.88-.1.1-.2.21-.23.35-.03.14.04.31.17.34-.92.29-1.73.91-2.25,1.72-.12.19-.21.49-.02.62"/>
          <path class="cls-4" d="M93.42,5.42c.08-.06.17-.12.24-.19-.09.06-.17.12-.24.19"/>
          <path class="cls-4" d="M94.41,9.29c-.06.13-.12.28-.1.43.02.15.12.29.27.32-.2.3-.46,1.26.23,1.13-.07-.29-.18-.43-.08-.74.09-.27.47-.82.72-.95-.2.1-.37.34-.59.29-.13-.03-.22-.17-.23-.31s.05-.27.11-.39c.17-.34.42-.64.71-.88-.46.24-.83.64-1.06,1.1"/>
          <path class="cls-4" d="M111.28,10.78c.4-.44.28-1.12.14-1.69.39-.18.62-.64.54-1.06-.03-.16-.12-.33-.23-.45-.11-.12-.28-.12-.37-.26,0-.01-.02-.03,0-.04,0,0,.01,0,.02,0,.08,0,.15.04.22.05.08.02.17,0,.2-.07.01-.03.01-.07,0-.1,0-.06-.02-.11-.04-.17-.12-.44-.21-.84-.53-1.19.11.12.22.23.34.34.04.03.08.07.12.09.05.02.1.03.15,0,.06-.03.09-.11.09-.18,0-.14-.07-.25-.12-.38-.06-.16-.14-.31-.23-.45-.03-.06-.25-.44-.34-.42.08-.02.13-.02.19.02.18.12.39.2.61.19.03,0,.05,0,.08-.01.03-.01.05-.04.07-.07.08-.12.12-.28.11-.43,0-.41-.24-.72-.45-1.05.22.23.57.26.89.28.2.01.46-.04.47-.23,0-.07-.04-.14-.08-.2-.12-.17-.26-.33-.41-.48.01.01,0,.07,0,.09,0,.03,0,.06,0,.09-.01.08-.06.14-.12.2-.05.06-.12.09-.19.11-.08.02-.16.02-.24.01-.25-.02-.49-.08-.72-.18.17.09.35.24.44.42.07.13.2.32.2.47,0,.12-.07.22-.15.3-.06.06-.12.13-.21.15-.06.02-.13,0-.19-.01-.24-.07-.23-.17-.36-.35-.05-.07-.14-.11-.22-.07,0,.35.13.71.34.99.02.02.04.05.06.07.1.12.23.24.25.39.01.07-.02.17-.1.17-.03,0-.06-.02-.08-.04-.08-.07-.12-.17-.18-.25-.06-.08-.16-.16-.26-.13,0,.47.25.91.47,1.32.04.08.08.17.06.26-.07.22-.3-.1-.36.17-.06.26.12.44.27.62.16.19.32.4.33.64,0,.11-.04.24-.15.27-.07.02-.14,0-.19-.06-.05-.05-.09-.11-.12-.17-.13-.28-.24-.58-.28-.88-.05-.3-.17-.59-.23-.89-.12-.58-.1-1.17-.08-1.76.02-.57.03-1.12.27-1.64.27-.57.72-.9,1.25-1.21.08-.05.2-.14.3-.15-.21.03-.41.06-.61.12-.75.23-1.35.88-1.53,1.64-.04.17-.06.35-.03.53,0,0,0,.02,0,.02-.04.33-.06.67-.06.99,0,.53.03,1.07.16,1.59.14.53.39,1.02.54,1.55.15.53.19,1.12-.07,1.59-.18.34-1.37.85-1.28,1.18.12.47,1.43.02,1.65-.22"/>
          <path class="cls-4" d="M89.5,2.85c-.15-.08-.17-.34-.03-.4-.15.04-.3.09-.42.19-.13.1-.22.28-.16.44.07.21.34.28.56.28.62,0,1.22-.29,1.63-.75-.02.03-.05.06-.07.1-.09.15-.14.35-.05.5.14.24.49.21.75.12.42-.14.81-.37,1.15-.66-.08.11-.17.23-.2.37-.03.14.02.3.14.36.08.04.17.03.26.02.46-.06.93-.29,1.23-.65-.26.11-.68.25-.91.02-.15-.15-.05-.44-.17-.58-.32-.36-1.2.51-1.79.16.1-.26.32-.45.55-.61h0c-.61.4-1.25.75-1.92,1.03-.17.07-.37.14-.54.06"/>
          <path class="cls-4" d="M94.85,3.17s.12.04.18.05c.49.01.98-.17,1.36-.5.01-.06.04-.13.07-.18.12-.19.32-.31.52-.42-.31.15-.62.3-.93.45-.21.1-.47.2-.67.07-.18-.13-.18-.41-.07-.6.12-.19.32-.3.52-.41-.28.14-.57.29-.79.53s-.36.56-.27.87c.01.06.04.11.08.14"/>
          <path class="cls-4" d="M97.64,2.54c.17.24.31.52.26.81-.05.29-.34.54-.62.47-.05-.01-.11-.04-.13-.09-.02-.05,0-.11.02-.16.1-.21.28-.39.49-.51-.23.1-.47.16-.72.18-.15.01-.32,0-.43-.09-.12-.1-.15-.25-.12-.41-.15.15-.29.31-.41.48-.04.06-.08.13-.08.2,0,.19.27.24.47.23.32-.02.66-.06.89-.28-.13.21-.27.43-.4.64-.07.11-.14.24-.12.37.03.2.27.31.47.27.2-.03.36-.17.52-.29.17-.14.34-.29.52-.41.11.21.1.46.25.64.14-.15.23-.4.26-.61.03-.17,0-.35-.03-.53-.18-.76-.78-1.4-1.52-1.64-.2-.06-.4-.09-.61-.12.42.18.8.47,1.06.83"/>
          <path class="cls-4" d="M92.04,4.15c.1.11-.15.36-.03.54.11.17.4.16.57.12.52-.11,1.02-.33,1.44-.65-.44.23-.9.39-1.39.5-.07.02-.15.03-.21-.01-.05-.03-.07-.1-.08-.16-.04-.18-.04-.37,0-.56l-1.55-.07c-.13.05-.25.16-.31.28-.02.04-.03.09-.01.13.03.05.1.06.16.06.25,0,1.28-.31,1.4-.18"/>
          <path class="cls-4" d="M94.58,5.6c-.25.21-.57.35-.9.4-.1.01-.2.02-.29-.03-.13-.08-.15-.28-.08-.42.02-.05.06-.09.1-.13-.26.19-.55.34-.86.46-.27.1-.65.15-.81-.1-.11-.17-.05-.39.04-.55-.25.19-.34.6-.34.91,0,.14.02.29.11.41.12.15.33.19.53.19.37,0,.74-.16,1.01-.42.14.22.44.29.71.25.1-.02.2-.05.29-.09.05-.02.09-.05.14-.07.04-.02.09-.02.13-.04-.18.07-.34.26-.47.4-.08.09-.16.18-.16.3,0,.14.1.27.23.34.38.24.94.15,1.22-.2-.24.05-.48.06-.72.02-.21-.03-.47-.12-.38-.37.02-.08.07-.14.13-.21.21-.24.47-.34.76-.46-.17.03-.34.03-.51,0-.08-.01-.18-.05-.19-.14,0-.04.02-.08.05-.12.08-.12.17-.22.28-.32"/>
          <path class="cls-4" d="M89.85,2.24c.55-.06,1.1-.17,1.63-.33.08-.02.17-.07.21-.14-.1,0-.21,0-.31-.02-.16-.03-.32-.08-.42-.21-.09-.13-.07-.35.08-.4-.51.09-.99.37-1.33.77-.07.08-.13.22-.05.29.05.05.12.04.19.03"/>
          <path class="cls-4" d="M116.02,3.5c.09.01.18.02.26-.02.12-.06.17-.23.14-.36-.03-.14-.11-.25-.2-.37.34.29.73.51,1.15.66.26.09.61.12.75-.12.09-.15.04-.35-.05-.5-.02-.03-.05-.07-.07-.1.4.46,1.01.75,1.63.74.22,0,.49-.07.56-.28.06-.16-.03-.34-.16-.44-.12-.1-.27-.14-.42-.19.14.06.12.33-.03.4-.17.08-.36.02-.54-.06-.67-.28-1.31-.63-1.92-1.03h0c.23.16.45.35.55.61-.6.35-1.47-.52-1.79-.16-.12.14-.02.43-.17.58-.23.23-.65.09-.92-.02.3.36.76.59,1.23.65"/>
          <path class="cls-4" d="M113.7,2.72c-.19.13-.46.03-.67-.07-.31-.15-.62-.3-.93-.45.2.11.4.23.52.42.03.05.06.12.07.18.37.32.86.51,1.36.49.06,0,.13,0,.18-.04.05-.03.07-.09.08-.14.08-.31-.06-.64-.27-.87s-.51-.38-.79-.53c.2.11.4.22.52.41.12.19.12.47-.07.6"/>
          <path class="cls-4" d="M118.33,3.89c-.15-.13-.33-.23-.48-.3.16.12.28.28.35.46-.3,0-.6-.03-.89-.08-.16-.03-.51-.17-.56.05-.02.07.02.14.02.2.01.12,0,.23-.03.35-.01.06-.03.12-.08.16-.06.04-.14.03-.21.01-.48-.1-.95-.27-1.39-.5.42.32.92.54,1.44.65.17.03.46.05.57-.12.12-.18-.13-.42-.03-.54.12-.13,1.16.18,1.4.18.06,0,.13,0,.16-.06.02-.04,0-.09-.01-.13-.06-.12-.15-.23-.27-.33"/>
          <path class="cls-4" d="M114.51,10.11c.15-.02.25-.17.27-.32.02-.15-.04-.29-.1-.43-.22-.47-.6-.86-1.06-1.1.29.24.54.54.71.88.06.12.12.25.11.39,0,.14-.09.28-.23.31-.22.05-.39-.18-.59-.29.26.13.63.68.72.95.11.31-.01.45-.08.74-.05-.06-.11-.12-.18-.16-.13-.08-.3-.12-.41-.24h-.14c.12.05.17.19.21.32.07.22.17.43.3.62.05.06.1.13.18.14.15.02.23-.18.21-.33-.02-.13-.08-.24-.16-.34.26.05.39-.06.43-.23,0,0,0,0,0,0,0,0,0,0,0,0,.07-.28-.08-.71-.2-.9"/>
          <polyline class="cls-4" points="114.71 11.01 114.71 11.01 114.71 11.01 114.71 11.01"/>
          <path class="cls-4" d="M114.64,6.25c-.17.03-.34.03-.51,0,.15.06.31.13.46.2.13.06.26.13.35.25.09.11.13.28.05.4-.07.12-.22.16-.36.18-.24.04-.49.03-.72-.02.28.35.84.45,1.22.2.12-.08.23-.2.22-.34,0-.12-.08-.21-.16-.3-.19-.2-.4-.38-.63-.53.23.14.46.28.72.33.26.05.56-.03.71-.25.27.26.64.41,1.01.42.19,0,.4-.04.52-.19.09-.11.11-.27.11-.41,0-.31-.09-.72-.34-.91.09.16.14.39.04.55-.16.24-.53.2-.81.1-.3-.11-.59-.27-.86-.46.04.04.08.08.1.13.07.14.06.34-.08.42-.08.05-.19.05-.29.03-.33-.05-.64-.19-.9-.4.1.1.2.2.28.32.02.03.05.08.05.12,0,.08-.1.12-.19.14"/>
          <path class="cls-4" d="M115.66,5.5c-.07-.07-.16-.13-.24-.19.08.07.16.13.24.19"/>
          <path class="cls-4" d="M119.84,2.48s-.07.07-.11.06c.28.38.88.49,1.28.23.79.18,1.51.62,2.02,1.23.07.09.15.19.14.3,0,.12-.13.23-.23.18.73.29,1.4.73,1.95,1.28.25.26.36.53.1.83.17.15.45.21.68.25.11.02.23.03.32-.04.19-.13.1-.43-.02-.62-.52-.81-1.33-1.43-2.25-1.72.14-.04.2-.21.17-.34-.03-.14-.13-.25-.23-.35-1.28-1.21-3.43-1.48-4.78-2.16.31.22.62.41.89.69.05.05.1.1.09.17"/>
          <path class="cls-4" d="M100.37,6.93c-.22,0-.39-.18-.39-.4s.18-.39.39-.39.39.18.39.39-.18.4-.39.4M100.37,6.36c-.09,0-.17.08-.17.17s.08.17.17.17.17-.08.17-.17-.08-.17-.17-.17"/>
        </g>
      </g>
      <g>
        <rect class="cls-3" x="62.85" y="160.23" width="41.8" height="8.38"/>
        <rect class="cls-1" x="104.64" y="160.23" width="20.9" height="8.38"/>
        <rect class="cls-2" x="125.54" y="160.23" width="20.9" height="8.38"/>
      </g>
      <g>
        <path class="cls-4" d="M0,98.45h15.02c6.66,0,11.83,1.78,15.51,5.34,3.68,3.56,5.52,8.56,5.52,14.99s-1.84,11.43-5.52,15.01c-3.68,3.58-8.85,5.37-15.51,5.37H0v-40.71ZM14.55,133.11c9.36,0,14.03-4.77,14.03-14.32s-4.68-14.26-14.03-14.26h-7.1v28.59h7.1Z"/>
        <path class="cls-4" d="M67.68,126.35h-19.23c.23,2.62,1.02,4.56,2.37,5.83,1.35,1.27,3.27,1.91,5.78,1.91,3.12,0,5.97-1,8.55-3l2.08,4.97c-1.31,1.08-2.96,1.94-4.94,2.6-1.98.65-3.98.98-5.98.98-4.62,0-8.27-1.31-10.94-3.93-2.68-2.62-4.01-6.2-4.01-10.74,0-2.89.58-5.45,1.73-7.68,1.15-2.23,2.78-3.96,4.88-5.2,2.1-1.23,4.48-1.85,7.13-1.85,3.89,0,6.96,1.25,9.21,3.75,2.25,2.5,3.38,5.95,3.38,10.34v2.02ZM50.62,117.17c-1.17,1.23-1.9,3-2.17,5.31h13.05c-.08-2.35-.66-4.13-1.73-5.34-1.08-1.21-2.58-1.82-4.5-1.82s-3.47.62-4.65,1.85Z"/>
        <path class="cls-4" d="M82.58,110.93h7.45v5.43h-7.45v22.81h-7.22v-22.81h-5.43v-5.43h5.43c0-4.04,1.05-7.08,3.15-9.12,2.1-2.04,5.36-3.18,9.79-3.41l2.83-.17.46,5.37-2.71.12c-2.27.12-3.89.63-4.85,1.53-.96.91-1.44,2.36-1.44,4.36v1.33Z"/>
        <path class="cls-4" d="M118.56,126.35h-19.23c.23,2.62,1.02,4.56,2.37,5.83,1.35,1.27,3.27,1.91,5.78,1.91,3.12,0,5.97-1,8.55-3l2.08,4.97c-1.31,1.08-2.96,1.94-4.94,2.6-1.98.65-3.98.98-5.98.98-4.62,0-8.27-1.31-10.94-3.93-2.68-2.62-4.01-6.2-4.01-10.74,0-2.89.58-5.45,1.73-7.68,1.15-2.23,2.78-3.96,4.88-5.2,2.1-1.23,4.48-1.85,7.13-1.85,3.89,0,6.96,1.25,9.21,3.75,2.25,2.5,3.38,5.95,3.38,10.34v2.02ZM101.5,117.17c-1.17,1.23-1.9,3-2.17,5.31h13.05c-.08-2.35-.66-4.13-1.73-5.34-1.08-1.21-2.58-1.82-4.5-1.82s-3.47.62-4.65,1.85Z"/>
        <path class="cls-4" d="M148.42,113.12c1.66,1.93,2.48,4.83,2.48,8.72v17.33h-7.22v-16.92c0-2.19-.41-3.79-1.24-4.79-.83-1-2.13-1.5-3.9-1.5-2.08,0-3.75.66-5,1.96-1.25,1.31-1.88,3.06-1.88,5.25v16h-7.22v-28.24h7.05v4.22c.96-1.58,2.25-2.79,3.87-3.64,1.62-.85,3.44-1.27,5.49-1.27,3.39,0,5.91.96,7.56,2.89Z"/>
        <path class="cls-4" d="M161.73,138.71c-2.1-.62-3.88-1.5-5.34-2.66l2.02-5.02c3,2.19,6.45,3.29,10.34,3.29,1.65,0,2.92-.27,3.78-.81.87-.54,1.3-1.31,1.3-2.31,0-.85-.3-1.5-.9-1.96-.6-.46-1.67-.88-3.21-1.27l-4.62-1.04c-2.62-.58-4.56-1.52-5.83-2.83-1.27-1.31-1.91-3-1.91-5.08,0-1.73.49-3.26,1.47-4.59.98-1.33,2.35-2.36,4.1-3.09,1.75-.73,3.78-1.1,6.09-1.1,2,0,3.94.31,5.8.92,1.87.62,3.51,1.48,4.94,2.6l-2.02,4.91c-2.93-2.12-5.85-3.18-8.78-3.18-1.58,0-2.81.29-3.7.87-.89.58-1.33,1.39-1.33,2.43,0,.77.28,1.41.84,1.91.56.5,1.45.89,2.69,1.16l4.79,1.1c2.81.62,4.87,1.59,6.18,2.92,1.31,1.33,1.96,3.07,1.96,5.23,0,2.62-1.06,4.7-3.18,6.24-2.12,1.54-4.99,2.31-8.6,2.31-2.5,0-4.8-.31-6.9-.92Z"/>
        <path class="cls-4" d="M207.21,113.12c1.92,1.93,2.89,4.89,2.89,8.89v17.15h-6.87v-4.33c-.65,1.5-1.68,2.68-3.09,3.52-1.41.85-3.03,1.27-4.88,1.27s-3.6-.38-5.14-1.16c-1.54-.77-2.75-1.83-3.64-3.18-.89-1.35-1.33-2.85-1.33-4.5,0-2.08.53-3.71,1.59-4.91,1.06-1.19,2.78-2.06,5.17-2.6,2.39-.54,5.68-.81,9.88-.81h1.44v-1.33c0-1.92-.41-3.31-1.24-4.16-.83-.85-2.2-1.27-4.13-1.27-1.5,0-3.07.26-4.71.78-1.64.52-3.24,1.24-4.82,2.17l-2.02-4.97c1.58-1,3.48-1.83,5.72-2.48,2.23-.65,4.35-.98,6.35-.98,3.97,0,6.91.96,8.84,2.89ZM201.4,132.5c1.21-1.29,1.82-2.96,1.82-5v-1.21h-1.04c-2.58,0-4.58.12-6.01.35-1.42.23-2.45.64-3.06,1.21-.62.58-.92,1.37-.92,2.37,0,1.23.42,2.24,1.27,3.03.85.79,1.92,1.18,3.23,1.18,1.92,0,3.49-.64,4.71-1.93Z"/>
      </g>
    </g>
  </g>
</svg>